<mxfile host="Electron" agent="Mozilla/5.0 (Windows NT 10.0; Win64; x64) AppleWebKit/537.36 (KHTML, like Gecko) draw.io/26.0.9 Chrome/128.0.6613.186 Electron/32.2.5 Safari/537.36" version="26.0.9">
  <diagram name="Page-1" id="nNLVao7vJ3uEuTS_4Ozs">
    <mxGraphModel dx="1434" dy="844" grid="1" gridSize="10" guides="1" tooltips="1" connect="1" arrows="1" fold="1" page="1" pageScale="1" pageWidth="1100" pageHeight="850" math="0" shadow="0">
      <root>
        <mxCell id="0" />
        <mxCell id="1" parent="0" />
        <mxCell id="IxxaY2BKMCGR-LkCxJqQ-24" value="" style="group" vertex="1" connectable="0" parent="1">
          <mxGeometry x="150" y="230" width="801" height="409" as="geometry" />
        </mxCell>
        <mxCell id="IxxaY2BKMCGR-LkCxJqQ-26" value="&lt;b&gt;OCI Region&lt;/b&gt;" style="whiteSpace=wrap;html=1;align=left;fontFamily=Oracle Sans;verticalAlign=top;fillColor=#F5F4F2;fontColor=#312D2A;strokeColor=#9E9892;rounded=1;arcSize=2;fontSize=11;spacingRight=5;container=0;spacingLeft=3;" vertex="1" parent="IxxaY2BKMCGR-LkCxJqQ-24">
          <mxGeometry x="101" width="700" height="409" as="geometry" />
        </mxCell>
        <mxCell id="IxxaY2BKMCGR-LkCxJqQ-27" value="Availability Domain 1" style="whiteSpace=wrap;html=1;strokeWidth=1;align=center;fontFamily=Oracle Sans;verticalAlign=top;fillColor=#DFDCD8;fontColor=#312D2A;strokeColor=#9E9892;rounded=1;arcSize=5;fontStyle=1;container=0;" vertex="1" parent="IxxaY2BKMCGR-LkCxJqQ-24">
          <mxGeometry x="215" y="9" width="315" height="391" as="geometry" />
        </mxCell>
        <mxCell id="IxxaY2BKMCGR-LkCxJqQ-29" value="&lt;b&gt;&lt;font color=&quot;#bb511c&quot;&gt;VCN&lt;/font&gt;&lt;/b&gt;" style="whiteSpace=wrap;html=1;strokeWidth=2;dashed=1;align=left;fontFamily=Oracle Sans;verticalAlign=top;labelBackgroundColor=none;fillColor=none;fontColor=#AE562C;strokeColor=#AE562C;container=0;spacingLeft=3;" vertex="1" parent="IxxaY2BKMCGR-LkCxJqQ-24">
          <mxGeometry x="121.75" y="37" width="669.25" height="364" as="geometry" />
        </mxCell>
        <mxCell id="IxxaY2BKMCGR-LkCxJqQ-32" value="&lt;font color=&quot;#bb511c&quot;&gt;&lt;b&gt;Subnet A&lt;br&gt;&lt;/b&gt;&lt;/font&gt;&lt;font color=&quot;#312d2a&quot;&gt;10.0.30.0/24&lt;br&gt;&lt;br&gt;&lt;/font&gt;" style="whiteSpace=wrap;html=1;strokeWidth=1;dashed=1;align=left;fontFamily=Oracle Sans;verticalAlign=top;fillColor=none;fontColor=#AE562C;strokeColor=#AE562C;sketch=0;glass=0;rounded=0;container=0;spacingLeft=3;" vertex="1" parent="IxxaY2BKMCGR-LkCxJqQ-24">
          <mxGeometry x="141" y="62" width="409" height="298" as="geometry" />
        </mxCell>
        <mxCell id="IxxaY2BKMCGR-LkCxJqQ-33" value="" style="shape=image;verticalLabelPosition=bottom;verticalAlign=top;imageAspect=0;aspect=fixed;image=data:image/svg+xml,PHN2ZyB4bWxucz0iaHR0cDovL3d3dy53My5vcmcvMjAwMC9zdmciIHhtbG5zOnhsaW5rPSJodHRwOi8vd3d3LnczLm9yZy8xOTk5L3hsaW5rIiB2ZXJzaW9uPSIxLjEiIGlkPSJMYXllcl8xIiB4PSIwcHgiIHk9IjBweCIgdmlld0JveD0iMCAwIDQzLjUgNDIiIHN0eWxlPSJlbmFibGUtYmFja2dyb3VuZDpuZXcgMCAwIDQzLjUgNDI7IiB4bWw6c3BhY2U9InByZXNlcnZlIiB3aWR0aD0iNDMuNSIgaGVpZ2h0PSI0MiI+JiN4YTs8Zz4mI3hhOwk8Zz4mI3hhOwkJPHBhdGggc3R5bGU9ImZpbGw6I0ZGRkZGRjsiIGQ9Ik0zMS4yLDQxLjVjLTIuOCwwLTUuMy0yLTUuOS00LjhoLTcuMWMtMC42LDIuNy0zLDQuOC01LjksNC44Yy0zLjMsMC02LTIuNy02LTYmIzEwOyYjOTsmIzk7JiM5O2MwLTIuMSwxLjItNC4xLDMtNS4ybC0yLjItNi43Yy0wLjIsMC0wLjQsMC0wLjYsMGMtMy4zLDAtNi0yLjctNi02YzAtMy4zLDIuNy02LDYtNmMxLjUsMCwyLjksMC41LDQsMS42TDE2LjMsOSYjMTA7JiM5OyYjOTsmIzk7Yy0wLjMtMC44LTAuNS0xLjYtMC41LTIuNWMwLTMuMywyLjctNiw2LTZzNiwyLjcsNiw2YzAsMC44LTAuMiwxLjctMC41LDIuNWw1LjcsNC4yYzEuMS0xLDIuNS0xLjYsNC0xLjZjMy4zLDAsNiwyLjcsNiw2JiMxMDsmIzk7JiM5OyYjOTtzLTIuNyw2LTYsNmMtMC4yLDAtMC40LDAtMC42LDBsLTIuMiw2LjdjMS44LDEuMSwzLDMuMSwzLDUuMkMzNy4yLDM4LjgsMzQuNSw0MS41LDMxLjIsNDEuNXoiLz4mI3hhOwkJPHBhdGggc3R5bGU9ImZpbGw6I0ZGRkZGRjsiIGQ9Ik0yMS43LDFjMywwLDUuNSwyLjUsNS41LDUuNWMwLDAuOS0wLjIsMS44LTAuNywyLjZsNi40LDQuN2MxLTEuMSwyLjQtMS43LDQtMS43JiMxMDsmIzk7JiM5OyYjOTtjMywwLDUuNSwyLjUsNS41LDUuNWMwLDMtMi41LDUuNS01LjUsNS41Yy0wLjMsMC0wLjcsMC0xLTAuMWwtMi41LDcuNWMxLjgsMC45LDMuMSwyLjgsMy4xLDVjMCwzLTIuNSw1LjUtNS41LDUuNSYjMTA7JiM5OyYjOTsmIzk7Yy0yLjgsMC01LjEtMi4xLTUuNS00LjhoLTcuOWMtMC40LDIuNy0yLjcsNC44LTUuNSw0LjhjLTMsMC01LjUtMi41LTUuNS01LjVjMC0yLjIsMS4zLTQuMSwzLjEtNUw3LjUsMjNjLTAuMywwLjEtMC43LDAuMS0xLDAuMSYjMTA7JiM5OyYjOTsmIzk7Yy0zLDAtNS41LTIuNS01LjUtNS41czIuNS01LjUsNS41LTUuNWMxLjYsMCwzLDAuNyw0LDEuN2w2LjQtNC43Yy0wLjQtMC44LTAuNy0xLjctMC43LTIuNkMxNi4yLDMuNSwxOC43LDEsMjEuNywxIE0yMS43LDAmIzEwOyYjOTsmIzk7JiM5O2MtMy42LDAtNi41LDIuOS02LjUsNi41YzAsMC44LDAuMSwxLjYsMC40LDIuM2wtNS4xLDMuN2MtMS4xLTAuOS0yLjYtMS40LTQtMS40QzIuOSwxMS4xLDAsMTQsMCwxNy42czIuOSw2LjUsNi41LDYuNSYjMTA7JiM5OyYjOTsmIzk7YzAuMSwwLDAuMiwwLDAuMywwbDEuOSw2Yy0xLjgsMS4yLTIuOSwzLjItMi45LDUuNGMwLDMuNiwyLjksNi41LDYuNSw2LjVjMi45LDAsNS41LTIsNi4zLTQuOGg2LjNjMC44LDIuOCwzLjMsNC44LDYuMyw0LjgmIzEwOyYjOTsmIzk7JiM5O2MzLjYsMCw2LjUtMi45LDYuNS02LjVjMC0yLjItMS4xLTQuMi0yLjktNS40bDEuOS02YzAuMSwwLDAuMiwwLDAuMywwYzMuNiwwLDYuNS0yLjksNi41LTYuNWMwLTMuNi0yLjktNi41LTYuNS02LjUmIzEwOyYjOTsmIzk7JiM5O2MtMS41LDAtMi45LDAuNS00LjEsMS40bC01LjEtMy43YzAuMy0wLjcsMC40LTEuNSwwLjQtMi4zQzI4LjMsMi45LDI1LjMsMCwyMS43LDBMMjEuNywweiIvPiYjeGE7CTwvZz4mI3hhOwk8Zz4mI3hhOwkJPHBhdGggc3R5bGU9ImZpbGw6I0JCNTAxQzsiIGQ9Ik0zNywxMi4xYy0xLjYsMC0zLDAuNy00LDEuN2wtNi40LTQuN2MwLjQtMC44LDAuNy0xLjcsMC43LTIuNmMwLTMtMi41LTUuNS01LjUtNS41JiMxMDsmIzk7JiM5OyYjOTtzLTUuNSwyLjUtNS41LDUuNWMwLDAuOSwwLjIsMS44LDAuNywyLjZsLTYuNCw0LjdjLTEtMS0yLjQtMS43LTQtMS43Yy0zLDAtNS41LDIuNS01LjUsNS41czIuNSw1LjUsNS41LDUuNWMwLjMsMCwwLjcsMCwxLTAuMSYjMTA7JiM5OyYjOTsmIzk7bDIuNCw3LjVjLTEuOCwwLjktMy4xLDIuOC0zLjEsNWMwLDMsMi41LDUuNSw1LjUsNS41YzIuOCwwLDUuMS0yLjEsNS41LTQuOGg3LjljMC40LDIuNywyLjcsNC44LDUuNSw0LjhjMywwLDUuNS0yLjUsNS41LTUuNSYjMTA7JiM5OyYjOTsmIzk7YzAtMi4yLTEuMy00LjEtMy4xLTVMMzYsMjNjMC4zLDAuMSwwLjcsMC4xLDEsMC4xYzMsMCw1LjUtMi41LDUuNS01LjVTNDAsMTIuMSwzNywxMi4xeiBNMzEuMiwzOS41Yy0yLjIsMC00LTEuOC00LTQmIzEwOyYjOTsmIzk7JiM5O2MwLTIuMiwxLjgtNCw0LTRzNCwxLjgsNCw0QzM1LjIsMzcuNywzMy40LDM5LjUsMzEuMiwzOS41eiBNMTcuOCwzNC44Yy0wLjItMS4zLTAuOC0yLjQtMS43LTMuM2wzLTQuMmMwLjgsMC40LDEuNywwLjcsMi42LDAuNyYjMTA7JiM5OyYjOTsmIzk7YzAuOSwwLDEuOC0wLjIsMi42LTAuN2wzLDQuMmMtMC45LDAuOC0xLjUsMi0xLjcsMy4zSDE3Ljh6IE04LjMsMzUuNWMwLTIuMiwxLjgtNCw0LTRzNCwxLjgsNCw0YzAsMi4yLTEuOCw0LTQsNCYjMTA7JiM5OyYjOTsmIzk7UzguMywzNy43LDguMywzNS41eiBNNi41LDEzLjVjMi4yLDAsNCwxLjgsNCw0cy0xLjgsNC00LDRzLTQtMS44LTQtNFM0LjMsMTMuNSw2LjUsMTMuNXogTTE3LjcsNi41YzAtMi4yLDEuOC00LDQtNHM0LDEuOCw0LDQmIzEwOyYjOTsmIzk7JiM5O3MtMS44LDQtNCw0UzE3LjcsOC43LDE3LjcsNi41eiBNMzEuNiwxOC41bC00LjksMS42Yy0wLjgtMS42LTIuNC0yLjgtNC4yLTMuMVYxMmMxLjMtMC4yLDIuNC0wLjgsMy4yLTEuN2w2LjQsNC43JiMxMDsmIzk7JiM5OyYjOTtjLTAuNCwwLjgtMC43LDEuNy0wLjcsMi42QzMxLjUsMTcuOSwzMS41LDE4LjIsMzEuNiwxOC41eiBNMjUuOCwyMi41YzAsMi4yLTEuOCw0LTQsNHMtNC0xLjgtNC00czEuOC00LDQtNFMyNS44LDIwLjIsMjUuOCwyMi41eiYjMTA7JiM5OyYjOTsmIzk7IE0yMSwxMlYxN2MtMS45LDAuMy0zLjUsMS40LTQuMiwzLjFsLTQuOS0xLjZjMC4xLTAuMywwLjEtMC42LDAuMS0xYzAtMC45LTAuMi0xLjgtMC43LTIuNmw2LjQtNC43QzE4LjYsMTEuMiwxOS43LDExLjgsMjEsMTJ6JiMxMDsmIzk7JiM5OyYjOTsgTTExLjUsMTkuOWw0LjksMS42Yy0wLjEsMC4zLTAuMSwwLjYtMC4xLDFjMCwxLjYsMC43LDMsMS43LDRsLTMsNC4yYy0wLjgtMC40LTEuNy0wLjctMi42LTAuN2MtMC4zLDAtMC43LDAtMSwwLjFsLTIuNC03LjUmIzEwOyYjOTsmIzk7JiM5O0MxMCwyMiwxMC45LDIxLjEsMTEuNSwxOS45eiBNMzEuMiwzMGMtMC45LDAtMS44LDAuMi0yLjYsMC43bC0zLTQuMmMxLjEtMSwxLjctMi40LDEuNy00YzAtMC4zLDAtMC43LTAuMS0xbDQuOS0xLjYmIzEwOyYjOTsmIzk7JiM5O2MwLjUsMS4xLDEuNSwyLDIuNiwyLjZsLTIuNSw3LjVDMzEuOCwzMCwzMS41LDMwLDMxLjIsMzB6IE0zMywxNy42YzAtMi4yLDEuOC00LDQtNHM0LDEuOCw0LDRzLTEuOCw0LTQsNFMzMywxOS44LDMzLDE3LjZ6Ii8+JiN4YTsJPC9nPiYjeGE7PC9nPiYjeGE7PC9zdmc+;dashed=1;dashPattern=1 1;strokeColor=#bb511c;strokeWidth=3;fontColor=#312D2A;fillColor=#FCFBFA;container=0;" vertex="1" parent="IxxaY2BKMCGR-LkCxJqQ-24">
          <mxGeometry x="757" y="21.99658932714624" width="30" height="28.64" as="geometry" />
        </mxCell>
        <mxCell id="IxxaY2BKMCGR-LkCxJqQ-36" value="Identity and&#xa;Access&#xa;Management" style="shape=image;verticalLabelPosition=bottom;verticalAlign=top;imageAspect=0;aspect=fixed;image=data:image/svg+xml,PHN2ZyB4bWxucz0iaHR0cDovL3d3dy53My5vcmcvMjAwMC9zdmciIHhtbG5zOnhsaW5rPSJodHRwOi8vd3d3LnczLm9yZy8xOTk5L3hsaW5rIiB2ZXJzaW9uPSIxLjEiIGlkPSJMYXllcl8xIiB4PSIwcHgiIHk9IjBweCIgdmlld0JveD0iMCAwIDQ0LjQwMDAwMTUyNTg3ODkwNiA0Mi4xMDAwMDIyODg4MTgzNiIgc3R5bGU9ImVuYWJsZS1iYWNrZ3JvdW5kOm5ldyAwIDAgNDQuNiA0Mi4xOyIgeG1sOnNwYWNlPSJwcmVzZXJ2ZSIgd2lkdGg9IjQ0LjQwMDAwMTUyNTg3ODkwNiIgaGVpZ2h0PSI0Mi4xMDAwMDIyODg4MTgzNiI+JiN4YTs8Zz4mI3hhOwk8Zz4mI3hhOwkJPHBhdGggc3R5bGU9ImZpbGw6I0ZGRkZGRjsiIGQ9Ik0zMy43LDQxLjNjLTUuNy0yLjgtOS4xLTcuMy05LjMtMTIuMmwwLTQuM0gwLjVWMC41aDM1djE1LjdsOC43LDMuN2wwLDkuMSYjMTA7JiM5OyYjOTsmIzk7Yy0wLjMsNC45LTMuNyw5LjQtOS40LDEyLjJsLTAuNiwwLjNMMzMuNyw0MS4zeiIvPiYjeGE7CQk8cGF0aCBzdHlsZT0iZmlsbDojRkZGRkZGOyIgZD0iTTM1LDF2MTUuNmw4LjcsMy43bDAsOC44Yy0wLjMsNC43LTMuNiw5LTkuMSwxMS44TDM0LjIsNDFsLTAuMy0wLjJjLTUuNS0yLjgtOC44LTctOS4xLTExLjdsMCwwJiMxMDsmIzk7JiM5OyYjOTt2LTQuN0gxVjFIMzUgTTM2LDBoLTFIMUgwdjF2MjMuM3YxaDFoMjIuOFYyOXYwbDAsMC4xYzAuMyw1LjEsMy44LDkuNyw5LjYsMTIuNmwwLjMsMC4ybDAuNCwwLjJsMC40LTAuMmwwLjMtMC4yJiMxMDsmIzk7JiM5OyYjOTtjNS44LTIuOSw5LjMtNy41LDkuNi0xMi42bDAsMHYwbDAtOC44di0wLjdMNDQsMTkuNEwzNiwxNS45VjFWMEwzNiwweiIvPiYjeGE7CTwvZz4mI3hhOwk8Zz4mI3hhOwkJPHBhdGggc3R5bGU9ImZpbGw6bm9uZTsiIGQ9Ik0zNSwyNC4zdjAuNGgtMS41di0xLjl2LTQuN2wtNy4yLDMuMVYyOWMwLjIsMy45LDIuOCw3LjQsNy4yLDkuOVYyNi40SDM1djEyLjZjNC40LTIuNSw3LTYuMSw3LjItOS45JiMxMDsmIzk7JiM5OyYjOTt2LTcuOEwzNSwxOC4yVjI0LjN6Ii8+JiN4YTsJCTxwYXRoIHN0eWxlPSJmaWxsOm5vbmU7IiBkPSJNMTAuOSwxMS4xYzEuMSwwLDItMC45LDItMnMtMC45LTItMi0ycy0yLDAuOS0yLDJTOS45LDExLjEsMTAuOSwxMS4xeiIvPiYjeGE7CQk8cG9seWdvbiBzdHlsZT0iZmlsbDojMkM1OTY3OyIgcG9pbnRzPSIyLjUsMi41IDMzLjUsMi41IDMzLjUsMTUuNCAzNC4yLDE1LjEgMzUsMTUuNCAzNSwxIDEsMSAxLDI0LjMgMjMuNywyNC4zIDIzLjcsMjIuOSAmIzEwOyYjOTsmIzk7JiM5OzIuNSwyMi45ICYjOTsmIzk7Ii8+JiN4YTsJCTxwYXRoIHN0eWxlPSJmaWxsOiMyQzU5Njc7IiBkPSJNMzQuMiwxNi4zbC05LjQsNFYyOWwwLDBjMC4zLDQuNywzLjYsOSw5LjEsMTEuN2wwLjMsMC4ybDAuMy0wLjJjNS41LTIuOCw4LjgtNyw5LjEtMTEuOGwwLTguOCYjMTA7JiM5OyYjOTsmIzk7TDM0LjIsMTYuM3ogTTQyLjIsMjljLTAuMiwzLjktMi44LDcuNC03LjIsOS45VjI2LjRoLTEuNXYxMi42Yy00LjQtMi41LTctNi4xLTcuMi05Ljl2LTcuOGw3LjItMy4xdjQuN3YxLjlIMzV2LTAuNHYtNi4ybDcuMiwzLjEmIzEwOyYjOTsmIzk7JiM5O1YyOXoiLz4mI3hhOwkJPHBvbHlnb24gc3R5bGU9ImZpbGw6IzJDNTk2NzsiIHBvaW50cz0iMjEsNy41IDIwLDguNSAyMi44LDExLjMgMjguMSw2IDI3LDQuOSAyMi44LDkuMiAmIzk7JiM5OyIvPiYjeGE7CQk8cG9seWdvbiBzdHlsZT0iZmlsbDojMkM1OTY3OyIgcG9pbnRzPSIyNi43LDE3LjYgMjQuOCwxNS42IDI2LjcsMTMuNyAyNS43LDEyLjYgMjMuNywxNC42IDIxLjgsMTIuNiAyMC44LDEzLjcgMjIuNywxNS42ICYjMTA7JiM5OyYjOTsmIzk7MjAuOCwxNy42IDIxLjgsMTguNiAyMy43LDE2LjcgMjUuNywxOC42ICYjOTsmIzk7Ii8+JiN4YTsJCTxwYXRoIHN0eWxlPSJmaWxsOiMyQzU5Njc7IiBkPSJNMTYsMTkuNnYtMy4yYzAtMS40LTEuMS0yLjUtMi41LTIuNWgtNWMtMS40LDAtMi41LDEuMS0yLjUsMi41djMuMmgxLjV2LTMuMiYjMTA7JiM5OyYjOTsmIzk7YzAtMC42LDAuNS0xLjEsMS4xLTEuMWg1YzAuNiwwLDEuMSwwLjUsMS4xLDEuMXYzLjJIMTZ6Ii8+JiN4YTsJCTxwYXRoIHN0eWxlPSJmaWxsOiMyQzU5Njc7IiBkPSJNMTAuOSwxMi42YzEuOSwwLDMuNC0xLjUsMy40LTMuNHMtMS41LTMuNC0zLjQtMy40QzksNS43LDcuNSw3LjMsNy41LDkuMlM5LDEyLjYsMTAuOSwxMi42eiYjMTA7JiM5OyYjOTsmIzk7IE0xMC45LDcuMmMxLjEsMCwyLDAuOSwyLDJzLTAuOSwyLTIsMnMtMi0wLjktMi0yUzkuOSw3LjIsMTAuOSw3LjJ6Ii8+JiN4YTsJPC9nPiYjeGE7PC9nPiYjeGE7PC9zdmc+;fontColor=#312D2A;strokeColor=#9E9892;fillColor=#FCFBFA;container=0;" vertex="1" parent="IxxaY2BKMCGR-LkCxJqQ-24">
          <mxGeometry x="722.5" y="80.64" width="44" height="42" as="geometry" />
        </mxCell>
        <mxCell id="IxxaY2BKMCGR-LkCxJqQ-46" value="" style="shape=image;verticalLabelPosition=bottom;verticalAlign=top;imageAspect=0;aspect=fixed;image=data:image/svg+xml,PHN2ZyB4bWxucz0iaHR0cDovL3d3dy53My5vcmcvMjAwMC9zdmciIHhtbG5zOnhsaW5rPSJodHRwOi8vd3d3LnczLm9yZy8xOTk5L3hsaW5rIiB2ZXJzaW9uPSIxLjEiIGlkPSJMYXllcl8xIiB4PSIwcHgiIHk9IjBweCIgdmlld0JveD0iMCAwIDMyLjM5OTk5NzcxMTE4MTY0IDQyLjE5OTk5Njk0ODI0MjE5IiBzdHlsZT0iZW5hYmxlLWJhY2tncm91bmQ6bmV3IDAgMCAzMi4zIDQyLjI7IiB4bWw6c3BhY2U9InByZXNlcnZlIiB3aWR0aD0iMzIuMzk5OTk3NzExMTgxNjQiIGhlaWdodD0iNDIuMTk5OTk2OTQ4MjQyMTkiPiYjeGE7PGc+JiN4YTsJPGc+JiN4YTsJCTxwYXRoIHN0eWxlPSJmaWxsOiNGRkZGRkY7IiBkPSJNMTUuOCw0MS41QzgsMzguNiw0LjMsMzMuNiwyLjUsMjkuOGMtMi00LjMtMi03LjktMi04LjFWNy4zbDE1LjctNi43bDE1LjYsNi43djE0LjUmIzEwOyYjOTsmIzk7JiM5O2MwLDAuNi0wLjIsMTQuMi0xNS4xLDE5LjdsLTAuNCwwLjJMMTUuOCw0MS41eiIvPiYjeGE7CQk8cGF0aCBzdHlsZT0iZmlsbDojRkZGRkZGOyIgZD0iTTE2LjIsMS4xbDE1LjEsNi41djE0LjJjMCwwLjYtMC4yLDEzLjgtMTQuOCwxOS4ybC0wLjMsMC4xTDE2LDQxQzguMywzOC4yLDQuNywzMy4zLDMsMjkuNiYjMTA7JiM5OyYjOTsmIzk7Yy0xLjktNC4xLTItNy43LTItNy44VjcuNkwxNi4yLDEuMSBNMTYuMiwwbC0wLjQsMC4yTDAuNiw2LjdMMCw2Ljl2MC43djE0LjJjMCwwLjIsMCwzLjksMi4xLDguM2MxLjgsMy44LDUuNiw5LDEzLjYsMTEuOSYjMTA7JiM5OyYjOTsmIzk7bDAuMywwLjFsMC4zLDAuMWwwLjMtMC4xbDAuMy0wLjFjMTUuMy01LjYsMTUuNS0xOS42LDE1LjUtMjAuMlY3LjZWNi45bC0wLjYtMC4zTDE2LjYsMC4yTDE2LjIsMEwxNi4yLDB6Ii8+JiN4YTsJPC9nPiYjeGE7CTxnPiYjeGE7CQk8cGF0aCBzdHlsZT0iZmlsbDpub25lOyIgZD0iTTIuNSw4LjZ2MTMuMmMwLDAuMSwwLDMuNCwxLjgsNy4yYzIuMyw0LjksNi4zLDguNCwxMS45LDEwLjVjMTMuNC01LjEsMTMuNi0xNy4yLDEzLjYtMTcuN1Y4LjYmIzEwOyYjOTsmIzk7JiM5O0wxNi4yLDIuN0wyLjUsOC42eiBNMTYuMSwyOC4zSDd2LTEuNWg5LjFWMjguM3ogTTE2LjEsMjEuNUg3VjIwaDkuMVYyMS41eiBNMTYuMSwxNC4ySDd2LTEuNWg5LjFWMTQuMnogTTIwLjIsMTIuN2wxLjIsMS4ybDMtMyYjMTA7JiM5OyYjOTsmIzk7bDEsMWwtNCw0bC0yLjItMi4yTDIwLjIsMTIuN3ogTTI0LjgsMjIuMmwtMSwxbC0xLjUtMS41bC0xLjUsMS41bC0xLTFsMS41LTEuNWwtMS41LTEuNWwxLTFsMS41LDEuNWwxLjUtMS41bDEsMWwtMS41LDEuNSYjMTA7JiM5OyYjOTsmIzk7TDI0LjgsMjIuMnogTTIwLjIsMjYuOGwxLjIsMS4ybDMtM2wxLDFsLTQsNGwtMi4yLTIuMkwyMC4yLDI2Ljh6Ii8+JiN4YTsJCTxwYXRoIHN0eWxlPSJmaWxsOiNCQjUwMUM7IiBkPSJNMTYuMiwxLjFMMSw3LjZ2MTQuMmMwLDAuMSwwLDMuNywyLDcuOGMxLjcsMy43LDUuNCw4LjYsMTMsMTEuNGwwLjMsMC4xbDAuMy0wLjEmIzEwOyYjOTsmIzk7JiM5O2MxNC42LTUuNCwxNC44LTE4LjcsMTQuOC0xOS4yVjcuNkwxNi4yLDEuMXogTTI5LjgsMjEuOGMwLDAuNS0wLjIsMTIuNi0xMy42LDE3LjdDMTAuNiwzNy40LDYuNiwzMy45LDQuMywyOSYjMTA7JiM5OyYjOTsmIzk7Yy0xLjgtMy45LTEuOC03LjEtMS44LTcuMlY4LjZsMTMuNy01LjlsMTMuNiw1LjlWMjEuOHoiLz4mI3hhOwkJPHJlY3QgeD0iNyIgeT0iMTIuNyIgc3R5bGU9ImZpbGw6I0JCNTAxQzsiIHdpZHRoPSI5LjEiIGhlaWdodD0iMS41Ii8+JiN4YTsJCTxwb2x5Z29uIHN0eWxlPSJmaWxsOiNCQjUwMUM7IiBwb2ludHM9IjI1LjQsMTIgMjQuMywxMSAyMS40LDEzLjkgMjAuMiwxMi43IDE5LjEsMTMuOCAyMS40LDE2ICYjOTsmIzk7Ii8+JiN4YTsJCTxyZWN0IHg9IjciIHk9IjIwIiBzdHlsZT0iZmlsbDojQkI1MDFDOyIgd2lkdGg9IjkuMSIgaGVpZ2h0PSIxLjUiLz4mI3hhOwkJPHBvbHlnb24gc3R5bGU9ImZpbGw6I0JCNTAxQzsiIHBvaW50cz0iMjMuOCwxOC4xIDIyLjMsMTkuNyAyMC43LDE4LjEgMTkuNywxOS4yIDIxLjIsMjAuNyAxOS43LDIyLjIgMjAuNywyMy4zIDIyLjMsMjEuOCAmIzEwOyYjOTsmIzk7JiM5OzIzLjgsMjMuMyAyNC44LDIyLjIgMjMuMywyMC43IDI0LjgsMTkuMiAmIzk7JiM5OyIvPiYjeGE7CQk8cmVjdCB4PSI3IiB5PSIyNi44IiBzdHlsZT0iZmlsbDojQkI1MDFDOyIgd2lkdGg9IjkuMSIgaGVpZ2h0PSIxLjUiLz4mI3hhOwkJPHBvbHlnb24gc3R5bGU9ImZpbGw6I0JCNTAxQzsiIHBvaW50cz0iMjUuNCwyNi4xIDI0LjMsMjUuMSAyMS40LDI4IDIwLjIsMjYuOCAxOS4xLDI3LjkgMjEuNCwzMC4xICYjOTsmIzk7Ii8+JiN4YTsJPC9nPiYjeGE7PC9nPiYjeGE7PC9zdmc+;dashed=1;dashPattern=1 1;strokeColor=#bb511c;strokeWidth=3;fontColor=#312D2A;fillColor=#FCFBFA;container=0;" vertex="1" parent="IxxaY2BKMCGR-LkCxJqQ-24">
          <mxGeometry x="470" y="50.64" width="22.86" height="30" as="geometry" />
        </mxCell>
        <mxCell id="IxxaY2BKMCGR-LkCxJqQ-47" value="" style="shape=image;verticalLabelPosition=bottom;verticalAlign=top;imageAspect=0;aspect=fixed;image=data:image/svg+xml,PHN2ZyB4bWxucz0iaHR0cDovL3d3dy53My5vcmcvMjAwMC9zdmciIHhtbG5zOnhsaW5rPSJodHRwOi8vd3d3LnczLm9yZy8xOTk5L3hsaW5rIiB2ZXJzaW9uPSIxLjEiIGlkPSJMYXllcl8xIiB4PSIwcHgiIHk9IjBweCIgdmlld0JveD0iMCAwIDQyIDQyIiBzdHlsZT0iZW5hYmxlLWJhY2tncm91bmQ6bmV3IDAgMCA0MiA0MjsiIHhtbDpzcGFjZT0icHJlc2VydmUiIHdpZHRoPSI0MiIgaGVpZ2h0PSI0MiI+JiN4YTs8Zz4mI3hhOwk8Zz4mI3hhOwkJPHJlY3QgeD0iMC41IiB5PSIwLjUiIHN0eWxlPSJmaWxsOiNGRkZGRkY7IiB3aWR0aD0iNDEiIGhlaWdodD0iNDEiLz4mI3hhOwkJPHBhdGggc3R5bGU9ImZpbGw6I0ZGRkZGRjsiIGQ9Ik00MSwxdjQwSDFWMUg0MSBNNDIsMGgtMUgxSDB2MXY0MHYxaDFoNDBoMXYtMVYxVjBMNDIsMHoiLz4mI3hhOwk8L2c+JiN4YTsJPGc+JiN4YTsJCTxwYXRoIHN0eWxlPSJmaWxsOiNCQjUwMUM7IiBkPSJNMSwxdjQwaDQwVjFIMXogTTM5LjUsMTMuOEgxMy42VjIuNWgyNS45VjEzLjh6IE0yLjUsMjguMmg5LjZ2MTEuNEgyLjVWMjguMnogTTEyLjEsMi41djExLjRIMi41JiMxMDsmIzk7JiM5OyYjOTtWMi41SDEyLjF6IE0xMi4xLDE1LjN2MTEuNEgyLjVWMTUuM0gxMi4xeiBNMTMuNiwzOS41VjI4LjJoMjUuOXYxMS40SDEzLjZ6IE0xMy42LDI2LjdWMTUuM2gyNS45djExLjRIMTMuNnoiLz4mI3hhOwkJPHBvbHlnb24gc3R5bGU9ImZpbGw6I0JCNTAxQzsiIHBvaW50cz0iMTUsMTIuMyAxNi43LDEyLjMgMTcuNiwxMC42IDE4LjUsMTIuMyAyMC4xLDEyLjMgMTguNiw5LjYgMjAsNy4xIDE4LjQsNy4xIDE3LjYsOC43ICYjMTA7JiM5OyYjOTsmIzk7MTYuNyw3LjEgMTUuMSw3LjEgMTYuNiw5LjYgJiM5OyYjOTsiLz4mI3hhOwkJPHJlY3QgeD0iMjAuOSIgeT0iMTEuMSIgc3R5bGU9ImZpbGw6I0JCNTAxQzsiIHdpZHRoPSIxLjQiIGhlaWdodD0iMS4yIi8+JiN4YTsJCTxwb2x5Z29uIHN0eWxlPSJmaWxsOiNCQjUwMUM7IiBwb2ludHM9IjI1LDEyLjMgMjUuOSwxMC42IDI2LjgsMTIuMyAyOC40LDEyLjMgMjYuOCw5LjYgMjguMyw3LjEgMjYuOCw3LjEgMjUuOSw4LjcgMjUsNy4xICYjMTA7JiM5OyYjOTsmIzk7MjMuNCw3LjEgMjQuOSw5LjYgMjMuNCwxMi4zICYjOTsmIzk7Ii8+JiN4YTsJCTxyZWN0IHg9IjI4LjkiIHk9IjExLjEiIHN0eWxlPSJmaWxsOiNCQjUwMUM7IiB3aWR0aD0iMS40IiBoZWlnaHQ9IjEuMiIvPiYjeGE7CQk8cG9seWdvbiBzdHlsZT0iZmlsbDojQkI1MDFDOyIgcG9pbnRzPSIzMi43LDEyLjMgMzMuNiwxMC42IDM0LjYsMTIuMyAzNi4xLDEyLjMgMzQuNiw5LjYgMzYsNy4xIDM0LjUsNy4xIDMzLjYsOC43IDMyLjcsNy4xICYjMTA7JiM5OyYjOTsmIzk7MzEuMiw3LjEgMzIuNiw5LjYgMzEuMSwxMi4zICYjOTsmIzk7Ii8+JiN4YTsJCTxyZWN0IHg9IjM2LjYiIHk9IjExLjEiIHN0eWxlPSJmaWxsOiNCQjUwMUM7IiB3aWR0aD0iMS40IiBoZWlnaHQ9IjEuMiIvPiYjeGE7CQk8cG9seWdvbiBzdHlsZT0iZmlsbDojQkI1MDFDOyIgcG9pbnRzPSIyMCwyMC4xIDE4LjQsMjAuMSAxNy42LDIxLjcgMTYuNywyMC4xIDE1LjEsMjAuMSAxNi42LDIyLjYgMTUsMjUuMyAxNi43LDI1LjMgMTcuNiwyMy42ICYjMTA7JiM5OyYjOTsmIzk7MTguNSwyNS4zIDIwLjEsMjUuMyAxOC42LDIyLjYgJiM5OyYjOTsiLz4mI3hhOwkJPHJlY3QgeD0iMjAuOSIgeT0iMjQiIHN0eWxlPSJmaWxsOiNCQjUwMUM7IiB3aWR0aD0iMS40IiBoZWlnaHQ9IjEuMiIvPiYjeGE7CQk8cG9seWdvbiBzdHlsZT0iZmlsbDojQkI1MDFDOyIgcG9pbnRzPSIyOC4zLDIwLjEgMjYuOCwyMC4xIDI1LjksMjEuNyAyNSwyMC4xIDIzLjQsMjAuMSAyNC45LDIyLjYgMjMuNCwyNS4zIDI1LDI1LjMgMjUuOSwyMy42ICYjMTA7JiM5OyYjOTsmIzk7MjYuOCwyNS4zIDI4LjQsMjUuMyAyNi44LDIyLjYgJiM5OyYjOTsiLz4mI3hhOwkJPHJlY3QgeD0iMjguOSIgeT0iMjQiIHN0eWxlPSJmaWxsOiNCQjUwMUM7IiB3aWR0aD0iMS40IiBoZWlnaHQ9IjEuMiIvPiYjeGE7CQk8cG9seWdvbiBzdHlsZT0iZmlsbDojQkI1MDFDOyIgcG9pbnRzPSIzNiwyMC4xIDM0LjUsMjAuMSAzMy42LDIxLjcgMzIuNywyMC4xIDMxLjIsMjAuMSAzMi42LDIyLjYgMzEuMSwyNS4zIDMyLjcsMjUuMyAmIzEwOyYjOTsmIzk7JiM5OzMzLjYsMjMuNiAzNC42LDI1LjMgMzYuMSwyNS4zIDM0LjYsMjIuNiAmIzk7JiM5OyIvPiYjeGE7CQk8cmVjdCB4PSIzNi42IiB5PSIyNCIgc3R5bGU9ImZpbGw6I0JCNTAxQzsiIHdpZHRoPSIxLjQiIGhlaWdodD0iMS4yIi8+JiN4YTsJCTxwb2x5Z29uIHN0eWxlPSJmaWxsOiNCQjUwMUM7IiBwb2ludHM9IjIwLDMyLjkgMTguNCwzMi45IDE3LjYsMzQuNCAxNi43LDMyLjkgMTUuMSwzMi45IDE2LjYsMzUuMyAxNSwzOCAxNi43LDM4IDE3LjYsMzYuMyAmIzEwOyYjOTsmIzk7JiM5OzE4LjUsMzggMjAuMSwzOCAxOC42LDM1LjQgJiM5OyYjOTsiLz4mI3hhOwkJPHJlY3QgeD0iMjAuOSIgeT0iMzYuOCIgc3R5bGU9ImZpbGw6I0JCNTAxQzsiIHdpZHRoPSIxLjQiIGhlaWdodD0iMS4yIi8+JiN4YTsJCTxwb2x5Z29uIHN0eWxlPSJmaWxsOiNCQjUwMUM7IiBwb2ludHM9IjI4LjMsMzIuOSAyNi44LDMyLjkgMjUuOSwzNC40IDI1LDMyLjkgMjMuNCwzMi45IDI0LjksMzUuMyAyMy40LDM4IDI1LDM4IDI1LjksMzYuMyAmIzEwOyYjOTsmIzk7JiM5OzI2LjgsMzggMjguNCwzOCAyNi44LDM1LjQgJiM5OyYjOTsiLz4mI3hhOwkJPHJlY3QgeD0iMjguOSIgeT0iMzYuOCIgc3R5bGU9ImZpbGw6I0JCNTAxQzsiIHdpZHRoPSIxLjQiIGhlaWdodD0iMS4yIi8+JiN4YTsJCTxwb2x5Z29uIHN0eWxlPSJmaWxsOiNCQjUwMUM7IiBwb2ludHM9IjM2LDMyLjkgMzQuNSwzMi45IDMzLjYsMzQuNCAzMi43LDMyLjkgMzEuMiwzMi45IDMyLjYsMzUuMyAzMS4xLDM4IDMyLjcsMzggMzMuNiwzNi4zICYjMTA7JiM5OyYjOTsmIzk7MzQuNiwzOCAzNi4xLDM4IDM0LjYsMzUuNCAmIzk7JiM5OyIvPiYjeGE7CQk8cmVjdCB4PSIzNi42IiB5PSIzNi44IiBzdHlsZT0iZmlsbDojQkI1MDFDOyIgd2lkdGg9IjEuNCIgaGVpZ2h0PSIxLjIiLz4mI3hhOwk8L2c+JiN4YTs8L2c+JiN4YTs8L3N2Zz4=;fontColor=#312D2A;strokeColor=#AE562C;fillColor=#FCFBFA;container=0;" vertex="1" parent="IxxaY2BKMCGR-LkCxJqQ-24">
          <mxGeometry x="500.00000000000006" y="50.64" width="30" height="30" as="geometry" />
        </mxCell>
        <mxCell id="IxxaY2BKMCGR-LkCxJqQ-99" value="" style="group" vertex="1" connectable="0" parent="IxxaY2BKMCGR-LkCxJqQ-24">
          <mxGeometry x="327" y="72.00000000000023" width="87" height="77.99999999999977" as="geometry" />
        </mxCell>
        <mxCell id="IxxaY2BKMCGR-LkCxJqQ-82" style="vsdxID=53;fillColor=none;gradientColor=none;strokeColor=none;spacingTop=-3;spacingBottom=-3;spacingLeft=-3;spacingRight=-3;points=[];labelBackgroundColor=none;rounded=0;html=1;whiteSpace=wrap;aspect=fixed;" vertex="1" parent="IxxaY2BKMCGR-LkCxJqQ-99">
          <mxGeometry x="22.5" width="42" height="42" as="geometry" />
        </mxCell>
        <mxCell id="IxxaY2BKMCGR-LkCxJqQ-83" style="vsdxID=54;fillColor=none;gradientColor=none;strokeColor=none;spacingTop=-3;spacingBottom=-3;spacingLeft=-3;spacingRight=-3;points=[];labelBackgroundColor=none;rounded=0;html=1;whiteSpace=wrap;" vertex="1" parent="IxxaY2BKMCGR-LkCxJqQ-82">
          <mxGeometry width="42" height="42" as="geometry" />
        </mxCell>
        <mxCell id="IxxaY2BKMCGR-LkCxJqQ-84" style="vsdxID=55;fillColor=#FFFFFF;gradientColor=none;shape=stencil(lZPRDoIwDEW/Zq9LWUHCs+J/EAVZRCATFP/eYYdsAzW+td2922mzMtxey6zNmYBrp5pzfpfHrmS4Y0LIusyV7HTEMGW4LRqVn1TT10fK22xUjtGluY03DOSLOEajScCDCknC482rsif9oVdkCEggeIjGEfgWGASVwChMmsQchVGgqzBpEvLQfrWStUUJDuKb+QMhuHgz8ERnteDyTnDWVBzcVTiNvnFnCN/o9Cyi2CUEFy8Ab3xWB+hLfOJVxFnuI3+AnA1L6kEsG/HJB1zOxkNfBf39Hf/V62D++4WsKlod+9zfFV2iPcP0CQ==);strokeColor=none;spacingTop=-3;spacingBottom=-3;spacingLeft=-3;spacingRight=-3;points=[];labelBackgroundColor=none;rounded=0;html=1;whiteSpace=wrap;" vertex="1" parent="IxxaY2BKMCGR-LkCxJqQ-83">
          <mxGeometry x="0.49999999999999983" y="0.49999999999999983" width="41.000000000000014" height="41.000000000000014" as="geometry" />
        </mxCell>
        <mxCell id="IxxaY2BKMCGR-LkCxJqQ-85" style="vsdxID=56;fillColor=#FFFFFF;gradientColor=none;shape=stencil(lZXRdoIwDIafprc9aUMpvXb6Hp6JgzMmHsSNvf1gLbQNCHpX4h/88iehDHe34njNmYRb29Sf+U95aguGb0zK8lLkTdn2J4Z7hrtz3eQfTX2/nOzz9Tgoh9NX/T28obN5BjmqIUvCr41Ijtl/4GD17/fGJgiXoXhiXIYgKdBJJ9IcR5ELJVy6SIdzkQulPMHwz6vyEsIGCRN+JlZpgxRfgFEEN6jJV5ClhDfwCqlqEbgvR8S8VE95e5c0wdU8lTFu77cmtIprEdMGIs+v9GPYIGG5GZQ1SBCzHstZPXI2LDhzCZdnkIzB5sy+qt/aCXihxbBuWaZiyyD2C6hZdAghdmp9YSAi21wWYHTyREInb+J3EQHANro5Sh41R8U7TeQLGy2Ih56BQgXbPJWCVPPcenj9c9thDNcp/U5O3Ry5Um5EjErsXPjorLu5Nrr9wV8E57Kq7D0S/k4vjj5kLx3c/wE=);strokeColor=none;spacingTop=-3;spacingBottom=-3;spacingLeft=-3;spacingRight=-3;points=[];labelBackgroundColor=none;rounded=0;html=1;whiteSpace=wrap;" vertex="1" parent="IxxaY2BKMCGR-LkCxJqQ-83">
          <mxGeometry width="42" height="42" as="geometry" />
        </mxCell>
        <mxCell id="IxxaY2BKMCGR-LkCxJqQ-86" style="vsdxID=57;fillColor=none;gradientColor=none;strokeColor=none;spacingTop=-3;spacingBottom=-3;spacingLeft=-3;spacingRight=-3;points=[];labelBackgroundColor=none;rounded=0;html=1;whiteSpace=wrap;" vertex="1" parent="IxxaY2BKMCGR-LkCxJqQ-82">
          <mxGeometry x="0.9999999999999997" y="0.9999999999999997" width="39.99999999999999" height="39.99999999999999" as="geometry" />
        </mxCell>
        <mxCell id="IxxaY2BKMCGR-LkCxJqQ-87" style="vsdxID=58;fillColor=#2d5967;gradientColor=none;shape=stencil(lZXLcoMwDEW/xlvGWDzidZr8R6YhhSmFDCEt+ftCbbAkB+Lu/LgyR/IVFrC/ladrIZS89V37WfxU574U8CaUqpqy6Kp+HAk4CNhf2q746Np7czbz62lSTqOv9ns6YTBxOo3SeIpS8mFW5N/saMR11SBxEqlkXft+78zJsdmMI62tOsZyOSgyfdipsrtAd2H5drpOJgmWzra4JIXSO0qFsOcVKSkaqgNQyVO4scZ5RgCZnBPqXSRjSukYONRMueQBXAAOY6OETv+84B6kno9bIBVF1LnLm175AL774KX9XniVGTtzNVzJ38so88puneRSSr2UxihbqK20nCqsszw9hwWvuzCImkV5wmkpKlKE2QQFhPkEBdiVhEPyhoPFWesdB5uUfstxfcDlIwx01+z6EwqKFUF/rgCf/jtgHLj//aWqa/Nc4H3+PoxL5m2Bwy8=);strokeColor=none;spacingTop=-3;spacingBottom=-3;spacingLeft=-3;spacingRight=-3;points=[];labelBackgroundColor=none;rounded=0;html=1;whiteSpace=wrap;" vertex="1" parent="IxxaY2BKMCGR-LkCxJqQ-86">
          <mxGeometry width="39.99999999999999" height="39.99999999999999" as="geometry" />
        </mxCell>
        <mxCell id="IxxaY2BKMCGR-LkCxJqQ-88" style="vsdxID=59;fillColor=#2d5967;gradientColor=none;shape=stencil(pZJbDsIgFERXwy+hQBW/a91Hk1IhIjQUX7sXcmNsNaWx/s1wz32EDGLVoJpeIkqG4N1J3nQbFGJ7RKm2SnodokKsRqzqnJdH7y62Bd83iUzq7K5pwh36SOqg5AGuIOAPgBptR+iruArOoCvB7PosOv0BjkUxpTdYlPOjdxyXf/GCY7qd57/u+ZVfuGeZj+Idl04bA2kb1z/jFZ8gmqx+Ag==);strokeColor=none;spacingTop=-3;spacingBottom=-3;spacingLeft=-3;spacingRight=-3;points=[];labelBackgroundColor=none;rounded=0;html=1;whiteSpace=wrap;" vertex="1" parent="IxxaY2BKMCGR-LkCxJqQ-86">
          <mxGeometry x="5.4999999999999964" y="25.500000000000007" width="29" height="8.499999999999996" as="geometry" />
        </mxCell>
        <mxCell id="IxxaY2BKMCGR-LkCxJqQ-89" style="vsdxID=60;fillColor=#2d5967;gradientColor=none;shape=stencil(jVLRDoMgDPwaXg2UOeezc/9hJk4ypwZ107+fpCRClxnf2nLH9eCYzIa66BUDPoyme6qPLseaySsD0G2tjB7XismcyazqjHqYbmpL7PvCIm316t72hhl5MbcU4Au2gmN/Q+x9MggWeJwk0Vk4gggZfAYyWGAjgcNIinGDUxql6Z7yxnADgEheQmV/OzfioW5MZHfNWoUkFCVWiVF/JRkijtokJv2ng9+t6Iv/s0l+tdHt4QSsxRadSjcNJs8/p1FbRxhTmX8B);strokeColor=none;spacingTop=-3;spacingBottom=-3;spacingLeft=-3;spacingRight=-3;points=[];labelBackgroundColor=none;rounded=0;html=1;whiteSpace=wrap;" vertex="1" parent="IxxaY2BKMCGR-LkCxJqQ-86">
          <mxGeometry x="28.500000000000004" y="29" width="1.9999999999999993" height="1.9999999999999993" as="geometry" />
        </mxCell>
        <mxCell id="IxxaY2BKMCGR-LkCxJqQ-90" style="vsdxID=61;fillColor=#2d5967;gradientColor=none;shape=stencil(pZLbDsIgEES/Zl8JZW3E51r/o0mpEBEa2nr5e0Fi2qrpRd92Z8+QCRnArJFFLYDRpnX2JK6qbCXgHhhTRgqnWj8B5oBZZZ04OtuZMu51Ecgwne0lvHCLvh0nnAcXo/eo0Od2iLBWZgDT38CETqCv4yJ4VdoZePwPHEmyGcFBSSdyp2SL/xl65avhM9Jqw0ykBQY/9NWplNaxecP7e9W8FGuK+QM=);strokeColor=none;spacingTop=-3;spacingBottom=-3;spacingLeft=-3;spacingRight=-3;points=[];labelBackgroundColor=none;rounded=0;html=1;whiteSpace=wrap;" vertex="1" parent="IxxaY2BKMCGR-LkCxJqQ-86">
          <mxGeometry x="5.4999999999999964" y="5.4999999999999964" width="8.499999999999996" height="8.499999999999996" as="geometry" />
        </mxCell>
        <mxCell id="IxxaY2BKMCGR-LkCxJqQ-91" style="vsdxID=62;fillColor=#2d5967;gradientColor=none;shape=stencil(pZJJDoMwDEVP422UxGXYU3oPJEKJmhIUoMPtm8iqCnSE7vzj920r+oBZVxetAsm73tmDOuuyrwG3IKVuauV07yvAHDCrrFN7Z4emJN0WgQzV0Z7ChAv5BOfBI/mVNKkdoUY3I3QleN/wEp2vXwSvRac/kG6YTCZwikxEH2bHLI3/M4iIJfje8HzSYsOXk34w+OIRmkobQ5kb9+ch808UUMxv);strokeColor=none;spacingTop=-3;spacingBottom=-3;spacingLeft=-3;spacingRight=-3;points=[];labelBackgroundColor=none;rounded=0;html=1;whiteSpace=wrap;" vertex="1" parent="IxxaY2BKMCGR-LkCxJqQ-86">
          <mxGeometry x="15.5" y="5.4999999999999964" width="8.499999999999996" height="8.499999999999996" as="geometry" />
        </mxCell>
        <mxCell id="IxxaY2BKMCGR-LkCxJqQ-92" style="vsdxID=63;fillColor=#2d5967;gradientColor=none;shape=stencil(pZLbDsIgEES/Zl8JZW3E51r/o0mpEBEa2nr5e0Fi2qrpRd92Z8+QCRnArJFFLYDRpnX2JK6qbCXgHhhTRgqnWj8B5oBZZZ04OtuZMu51Ecgwne0lvHCLvh0nnAcXo/eo0Od2iLBWZgDT38CETqCv4yJ4VdoZePwPHEmyGcFBSSdyp2SL/xl65avhM9Jqw0ykBQY/9NWplNaxecP7e9W8FGuK+QM=);strokeColor=none;spacingTop=-3;spacingBottom=-3;spacingLeft=-3;spacingRight=-3;points=[];labelBackgroundColor=none;rounded=0;html=1;whiteSpace=wrap;" vertex="1" parent="IxxaY2BKMCGR-LkCxJqQ-86">
          <mxGeometry x="5.4999999999999964" y="15.5" width="8.499999999999996" height="8.499999999999996" as="geometry" />
        </mxCell>
        <mxCell id="IxxaY2BKMCGR-LkCxJqQ-93" style="vsdxID=64;fillColor=#2d5967;gradientColor=none;shape=stencil(pZJJDoMwDEVP422UxGXYU3oPJEKJmhIUoMPtm8iqCnSE7vzj920r+oBZVxetAsm73tmDOuuyrwG3IKVuauV07yvAHDCrrFN7Z4emJN0WgQzV0Z7ChAv5BOfBI/mVNKkdoUY3I3QleN/wEp2vXwSvRac/kG6YTCZwikxEH2bHLI3/M4iIJfje8HzSYsOXk34w+OIRmkobQ5kb9+ch808UUMxv);strokeColor=none;spacingTop=-3;spacingBottom=-3;spacingLeft=-3;spacingRight=-3;points=[];labelBackgroundColor=none;rounded=0;html=1;whiteSpace=wrap;" vertex="1" parent="IxxaY2BKMCGR-LkCxJqQ-86">
          <mxGeometry x="15.5" y="15.5" width="8.499999999999996" height="8.499999999999996" as="geometry" />
        </mxCell>
        <mxCell id="IxxaY2BKMCGR-LkCxJqQ-94" style="vsdxID=65;fillColor=#2d5967;gradientColor=none;shape=stencil(pZJJDoMwDEVP422UxGXYU3oPJEKJmhIUoMPtm8iqCnSE7vzj920r+oBZVxetAsm73tmDOuuyrwG3IKVuauV07yvAHDCrrFN7Z4emJN0WgQzV0Z7ChAv5BOfBI/mVNKkdoUY3I3QleN/wEp2vXwSvRac/kG6YTCZwikxEH2bHLI3/M4iIJfje8HzSYsOXk34w+OIRmkobQ5kb9+ch808UUMxv);strokeColor=none;spacingTop=-3;spacingBottom=-3;spacingLeft=-3;spacingRight=-3;points=[];labelBackgroundColor=none;rounded=0;html=1;whiteSpace=wrap;" vertex="1" parent="IxxaY2BKMCGR-LkCxJqQ-86">
          <mxGeometry x="25.500000000000007" y="5.4999999999999964" width="8.499999999999996" height="8.499999999999996" as="geometry" />
        </mxCell>
        <mxCell id="IxxaY2BKMCGR-LkCxJqQ-95" style="vsdxID=66;fillColor=#2d5967;gradientColor=none;shape=stencil(pZJJDoMwDEVP422UxGXYU3oPJEKJmhIUoMPtm8iqCnSE7vzj920r+oBZVxetAsm73tmDOuuyrwG3IKVuauV07yvAHDCrrFN7Z4emJN0WgQzV0Z7ChAv5BOfBI/mVNKkdoUY3I3QleN/wEp2vXwSvRac/kG6YTCZwikxEH2bHLI3/M4iIJfje8HzSYsOXk34w+OIRmkobQ5kb9+ch808UUMxv);strokeColor=none;spacingTop=-3;spacingBottom=-3;spacingLeft=-3;spacingRight=-3;points=[];labelBackgroundColor=none;rounded=0;html=1;whiteSpace=wrap;" vertex="1" parent="IxxaY2BKMCGR-LkCxJqQ-86">
          <mxGeometry x="25.500000000000007" y="15.5" width="8.499999999999996" height="8.499999999999996" as="geometry" />
        </mxCell>
        <mxCell id="IxxaY2BKMCGR-LkCxJqQ-96" value="&lt;div style=&quot;&quot;&gt;&lt;p style=&quot;margin: 0px; text-indent: 0px; direction: ltr;&quot;&gt;&lt;font style=&quot;font-family: &amp;quot;Oracle Sans&amp;quot;; color: rgb(0, 0, 0); direction: ltr; letter-spacing: 0px; line-height: 120%; opacity: 1;&quot;&gt;Virtual&lt;br&gt;&lt;/font&gt;&lt;/p&gt;&lt;p style=&quot;margin: 0px; text-indent: 0px; direction: ltr;&quot;&gt;&lt;font style=&quot;font-family: &amp;quot;Oracle Sans&amp;quot;; color: rgb(0, 0, 0); direction: ltr; letter-spacing: 0px; line-height: 120%; opacity: 1;&quot;&gt;Macine&lt;/font&gt;&lt;/p&gt;&lt;/div&gt;" style="verticalAlign=middle;align=center;vsdxID=68;fillColor=none;gradientColor=none;shape=stencil(nZBLDoAgDERP0z3SIyjew0SURgSD+Lu9kMZoXLhwN9O+tukAlrNpJg1SzDH4QW/URgNYgZTkjA4UkwJUgGXng+6DX1zLfmoymdXo17xh5zmRJ6Q42BWCfc2oJfdAr+Yv+AP9Cb7OJ3H/2JG1HNGz/84klThPVCc=);strokeColor=none;spacingTop=-3;spacingBottom=-3;spacingLeft=-3;spacingRight=-3;points=[];labelBackgroundColor=none;rounded=0;html=1;whiteSpace=wrap;" vertex="1" parent="IxxaY2BKMCGR-LkCxJqQ-99">
          <mxGeometry y="49.99999999999977" width="87" height="28" as="geometry" />
        </mxCell>
        <mxCell id="IxxaY2BKMCGR-LkCxJqQ-100" value="" style="group;aspect=fixed;" vertex="1" connectable="0" parent="IxxaY2BKMCGR-LkCxJqQ-24">
          <mxGeometry x="350" y="190.00000000000023" width="42" height="54.5" as="geometry" />
        </mxCell>
        <mxCell id="IxxaY2BKMCGR-LkCxJqQ-101" style="vsdxID=37;fillColor=none;gradientColor=none;strokeColor=none;spacingTop=-3;spacingBottom=-3;spacingLeft=-3;spacingRight=-3;points=[];labelBackgroundColor=none;rounded=0;html=1;whiteSpace=wrap;" vertex="1" parent="IxxaY2BKMCGR-LkCxJqQ-100">
          <mxGeometry width="42" height="42" as="geometry" />
        </mxCell>
        <mxCell id="IxxaY2BKMCGR-LkCxJqQ-102" style="vsdxID=38;fillColor=none;gradientColor=none;strokeColor=none;spacingTop=-3;spacingBottom=-3;spacingLeft=-3;spacingRight=-3;points=[];labelBackgroundColor=none;rounded=0;html=1;whiteSpace=wrap;" vertex="1" parent="IxxaY2BKMCGR-LkCxJqQ-101">
          <mxGeometry width="42" height="42" as="geometry" />
        </mxCell>
        <mxCell id="IxxaY2BKMCGR-LkCxJqQ-103" style="vsdxID=39;fillColor=#FFFFFF;gradientColor=none;shape=stencil(lZPRDoIwDEW/Zq9LWUHCs+J/EAVZRCATFP/eYYdsAzW+td2922mzMtxey6zNmYBrp5pzfpfHrmS4Y0LIusyV7HTEMGW4LRqVn1TT10fK22xUjtGluY03DOSLOEajScCDCknC482rsif9oVdkCEggeIjGEfgWGASVwChMmsQchVGgqzBpEvLQfrWStUUJDuKb+QMhuHgz8ERnteDyTnDWVBzcVTiNvnFnCN/o9Cyi2CUEFy8Ab3xWB+hLfOJVxFnuI3+AnA1L6kEsG/HJB1zOxkNfBf39Hf/V62D++4WsKlod+9zfFV2iPcP0CQ==);strokeColor=none;spacingTop=-3;spacingBottom=-3;spacingLeft=-3;spacingRight=-3;points=[];labelBackgroundColor=none;rounded=0;html=1;whiteSpace=wrap;" vertex="1" parent="IxxaY2BKMCGR-LkCxJqQ-102">
          <mxGeometry x="0.5" y="0.5" width="41" height="41" as="geometry" />
        </mxCell>
        <mxCell id="IxxaY2BKMCGR-LkCxJqQ-104" style="vsdxID=40;fillColor=#FFFFFF;gradientColor=none;shape=stencil(lZXRdoIwDIafprc9aUMpvXb6Hp6JgzMmHsSNvf1gLbQNCHpX4h/88iehDHe34njNmYRb29Sf+U95aguGb0zK8lLkTdn2J4Z7hrtz3eQfTX2/nOzz9Tgoh9NX/T28obN5BjmqIUvCr41Ijtl/4GD17/fGJgiXoXhiXIYgKdBJJ9IcR5ELJVy6SIdzkQulPMHwz6vyEsIGCRN+JlZpgxRfgFEEN6jJV5ClhDfwCqlqEbgvR8S8VE95e5c0wdU8lTFu77cmtIprEdMGIs+v9GPYIGG5GZQ1SBCzHstZPXI2LDhzCZdnkIzB5sy+qt/aCXihxbBuWaZiyyD2C6hZdAghdmp9YSAi21wWYHTyREInb+J3EQHANro5Sh41R8U7TeQLGy2Ih56BQgXbPJWCVPPcenj9c9thDNcp/U5O3Ry5Um5EjErsXPjorLu5Nrr9wV8E57Kq7D0S/k4vjj5kLx3c/wE=);strokeColor=none;spacingTop=-3;spacingBottom=-3;spacingLeft=-3;spacingRight=-3;points=[];labelBackgroundColor=none;rounded=0;html=1;whiteSpace=wrap;" vertex="1" parent="IxxaY2BKMCGR-LkCxJqQ-102">
          <mxGeometry width="42" height="42" as="geometry" />
        </mxCell>
        <mxCell id="IxxaY2BKMCGR-LkCxJqQ-105" style="vsdxID=41;fillColor=none;gradientColor=none;strokeColor=none;spacingTop=-3;spacingBottom=-3;spacingLeft=-3;spacingRight=-3;points=[];labelBackgroundColor=none;rounded=0;html=1;whiteSpace=wrap;" vertex="1" parent="IxxaY2BKMCGR-LkCxJqQ-101">
          <mxGeometry x="1" y="1" width="40" height="40" as="geometry" />
        </mxCell>
        <mxCell id="IxxaY2BKMCGR-LkCxJqQ-106" style="vsdxID=42;fillColor=#2d5967;gradientColor=none;shape=stencil(lZXLcoMwDEW/xlvGWDzidZr8R6YhhSmFDCEt+ftCbbAkB+Lu/LgyR/IVFrC/ladrIZS89V37WfxU574U8CaUqpqy6Kp+HAk4CNhf2q746Np7czbz62lSTqOv9ns6YTBxOo3SeIpS8mFW5N/saMR11SBxEqlkXft+78zJsdmMI62tOsZyOSgyfdipsrtAd2H5drpOJgmWzra4JIXSO0qFsOcVKSkaqgNQyVO4scZ5RgCZnBPqXSRjSukYONRMueQBXAAOY6OETv+84B6kno9bIBVF1LnLm175AL774KX9XniVGTtzNVzJ38so88puneRSSr2UxihbqK20nCqsszw9hwWvuzCImkV5wmkpKlKE2QQFhPkEBdiVhEPyhoPFWesdB5uUfstxfcDlIwx01+z6EwqKFUF/rgCf/jtgHLj//aWqa/Nc4H3+PoxL5m2Bwy8=);strokeColor=none;spacingTop=-3;spacingBottom=-3;spacingLeft=-3;spacingRight=-3;points=[];labelBackgroundColor=none;rounded=0;html=1;whiteSpace=wrap;" vertex="1" parent="IxxaY2BKMCGR-LkCxJqQ-105">
          <mxGeometry width="40" height="40" as="geometry" />
        </mxCell>
        <mxCell id="IxxaY2BKMCGR-LkCxJqQ-107" style="vsdxID=43;fillColor=#2d5967;gradientColor=none;shape=stencil(pZLRDsIgDEW/hlcCNG68z/kfS8aEiLCwOfXvhTTGTSPqfOul57YNuQSqQTe9IoINY/AHdTbtqAlsiRDGaRXMGCsCNYGq80Htgz+5FnXfJDJVRz+lCRf0seQQ7IqKM9Q7RK1xM/TeXAVn0JVgdn0WXf4AByrKJV5QuXk/Wxa0hP8MEijPGF5P+tnw4aQvDLF4hKYz1mLm5v3nkMUnDCjUNw==);strokeColor=none;spacingTop=-3;spacingBottom=-3;spacingLeft=-3;spacingRight=-3;points=[];labelBackgroundColor=none;rounded=0;html=1;whiteSpace=wrap;" vertex="1" parent="IxxaY2BKMCGR-LkCxJqQ-105">
          <mxGeometry x="4" y="26.5" width="11" height="8.5" as="geometry" />
        </mxCell>
        <mxCell id="IxxaY2BKMCGR-LkCxJqQ-108" style="vsdxID=44;fillColor=#2d5967;gradientColor=none;shape=stencil(pZLdDsIgDIWfhlsC1Bm8nvM9lowJEWFhmz9vL6QxbhpZnHc99DttQw6Bstd1p4hg/RD8SV1NM2gCeyKEcVoFM8SKQEWgbH1Qx+BH16Du6kSm6uwvacINfSw5BLuj4gz1AVFr3AR9NlfBGXQlmF2fRec/sKFSzOktlcX30buCcvmfQQLlGcPHRb/yCwct87F4BaY11mLepv33gMUnDCdUDw==);strokeColor=none;spacingTop=-3;spacingBottom=-3;spacingLeft=-3;spacingRight=-3;points=[];labelBackgroundColor=none;rounded=0;html=1;whiteSpace=wrap;" vertex="1" parent="IxxaY2BKMCGR-LkCxJqQ-105">
          <mxGeometry x="4" y="4" width="31" height="8.5" as="geometry" />
        </mxCell>
        <mxCell id="IxxaY2BKMCGR-LkCxJqQ-109" style="vsdxID=45;fillColor=#2d5967;gradientColor=none;shape=stencil(pZLLDoMgEEW/hi0BplRdW/sfJmIhpWKQvv6+kklT7cPWupsL5w7D5BLIO122igjWBe/26myqoAlsiBCm0cqb0FcECgJ57bzaeXdsKtRtGclYHdwpdrigjzMWPYJdUaPaImpNM0D/BO8vvEWzjEqxBJ+AZ3xtEh0vLBM0XY/gFCiXn3snlK8W8VzSBCZ28jLQbMOXiX4w9MUjYbWxFgM6vH9OZH+EaYbiBg==);strokeColor=none;spacingTop=-3;spacingBottom=-3;spacingLeft=-3;spacingRight=-3;points=[];labelBackgroundColor=none;rounded=0;html=1;whiteSpace=wrap;" vertex="1" parent="IxxaY2BKMCGR-LkCxJqQ-105">
          <mxGeometry x="4" y="15.5" width="21" height="8.5" as="geometry" />
        </mxCell>
        <mxCell id="IxxaY2BKMCGR-LkCxJqQ-110" style="vsdxID=46;fillColor=#2d5967;gradientColor=none;shape=stencil(nZBLCoAwDERPk31tjuDnHoLVBmsrtf5ub0sQRdzobiZ5ycAA5pOuRwVSTMG7Xq3UBA1YgJRktfIUogIsAfPWedV5N9uG/VgnMqnBLenDxneZEOlGip09u4pRQ/aG/gTPhFf0Gf8J/otGcdXRkjHc5n3/rC+OuHosDw==);strokeColor=none;spacingTop=-3;spacingBottom=-3;spacingLeft=-3;spacingRight=-3;points=[];labelBackgroundColor=none;rounded=0;html=1;whiteSpace=wrap;" vertex="1" parent="IxxaY2BKMCGR-LkCxJqQ-105">
          <mxGeometry x="27" y="16" width="7.5" height="7" as="geometry" />
        </mxCell>
        <mxCell id="IxxaY2BKMCGR-LkCxJqQ-111" style="vsdxID=47;fillColor=#2d5967;gradientColor=none;shape=stencil(nZBLCoAwDERPk31tjuDnHoLVBmsrtf5ub0sQRdzobiZ5ycAA5pOuRwVSTMG7Xq3UBA1YgJRktfIUogIsAfPWedV5N9uG/VgnMqnBLenDxneZEOlGip09u4pRQ/aG/gTPhFf0Gf8J/otGcdXRkjHc5n3/rC+OuHosDw==);strokeColor=none;spacingTop=-3;spacingBottom=-3;spacingLeft=-3;spacingRight=-3;points=[];labelBackgroundColor=none;rounded=0;html=1;whiteSpace=wrap;" vertex="1" parent="IxxaY2BKMCGR-LkCxJqQ-105">
          <mxGeometry x="27" y="27" width="7.5" height="7" as="geometry" />
        </mxCell>
        <mxCell id="IxxaY2BKMCGR-LkCxJqQ-112" style="vsdxID=48;fillColor=#2d5967;gradientColor=none;shape=stencil(nZBLCoAwDERPk31tjuDnHoLVBmsrtf5ub0sQRdzobiZ5ycAA5pOuRwVSTMG7Xq3UBA1YgJRktfIUogIsAfPWedV5N9uG/VgnMqnBLenDxneZEOlGip09u4pRQ/aG/gTPhFf0Gf8J/otGcdXRkjHc5n3/rC+OuHosDw==);strokeColor=none;spacingTop=-3;spacingBottom=-3;spacingLeft=-3;spacingRight=-3;points=[];labelBackgroundColor=none;rounded=0;html=1;whiteSpace=wrap;" vertex="1" parent="IxxaY2BKMCGR-LkCxJqQ-105">
          <mxGeometry x="17.5" y="27" width="7.5" height="7" as="geometry" />
        </mxCell>
        <mxCell id="IxxaY2BKMCGR-LkCxJqQ-113" value="&lt;div style=&quot;&quot;&gt;&lt;p style=&quot;margin: 0px; text-indent: 0px; direction: ltr;&quot;&gt;&lt;font style=&quot;font-family: &amp;quot;Oracle Sans&amp;quot;; color: rgb(0, 0, 0); direction: ltr; letter-spacing: 0px; line-height: 120%; opacity: 1;&quot;&gt;&lt;font&gt;Functions&lt;/font&gt;&lt;br&gt;&lt;/font&gt;&lt;/p&gt;&lt;/div&gt;" style="verticalAlign=middle;align=center;vsdxID=50;fillColor=none;gradientColor=none;shape=stencil(nZBLDoAgDERP0z3SIyjew0SURgSD+Lu9kMZoXLhwN9O+tukAlrNpJg1SzDH4QW/URgNYgZTkjA4UkwJUgGXng+6DX1zLfmoymdXo17xh5zmRJ6Q42BWCfc2oJfdAr+Yv+AP9Cb7OJ3H/2JG1HNGz/84klThPVCc=);strokeColor=none;spacingTop=-3;spacingBottom=-3;spacingLeft=-3;spacingRight=-3;points=[];labelBackgroundColor=none;rounded=0;html=1;whiteSpace=wrap;" vertex="1" parent="IxxaY2BKMCGR-LkCxJqQ-100">
          <mxGeometry x="2" y="44.5" width="37.5" height="10" as="geometry" />
        </mxCell>
        <mxCell id="IxxaY2BKMCGR-LkCxJqQ-154" value="" style="group" vertex="1" connectable="0" parent="IxxaY2BKMCGR-LkCxJqQ-24">
          <mxGeometry x="670" y="300" width="42" height="57.559999999999945" as="geometry" />
        </mxCell>
        <mxCell id="IxxaY2BKMCGR-LkCxJqQ-127" style="vsdxID=16;fillColor=none;gradientColor=none;strokeColor=none;spacingTop=-3;spacingBottom=-3;spacingLeft=-3;spacingRight=-3;points=[];labelBackgroundColor=none;rounded=0;html=1;whiteSpace=wrap;aspect=fixed;" vertex="1" parent="IxxaY2BKMCGR-LkCxJqQ-154">
          <mxGeometry width="42" height="40.53" as="geometry" />
        </mxCell>
        <mxCell id="IxxaY2BKMCGR-LkCxJqQ-128" style="vsdxID=17;fillColor=none;gradientColor=none;strokeColor=none;spacingTop=-3;spacingBottom=-3;spacingLeft=-3;spacingRight=-3;points=[];labelBackgroundColor=none;rounded=0;html=1;whiteSpace=wrap;" vertex="1" parent="IxxaY2BKMCGR-LkCxJqQ-127">
          <mxGeometry width="42" height="40.53" as="geometry" />
        </mxCell>
        <mxCell id="IxxaY2BKMCGR-LkCxJqQ-129" style="vsdxID=18;fillColor=#FFFFFF;gradientColor=none;shape=stencil(lZRBcoMwDEVPw1YjSxjkdZrcI9OQwpSGDCFtevtC7UwsIGTYyeJ/8/jYSnhzKffnIiG8dG3zWfxUh65M+C0hqk5l0VZdXyW8TXhzbNrio22up4Nfn/eDcqi+mu9hh5v3kQObDi7CX99xDpD/OztvqKtTbMiARBsEMFswENhMG1Iw7rkhBZFl/fu19d9gwiuAOTjM2II38i0MirB0BGiCgrUiLMWBeU6JCtECyhIhajyClDRdT+M0IGq4KBWFOwsnFqzOEJfoRIBzTYgazyGkmeYjMKIRYxHP56IxY0PYNAexS6gGR1GygzTXsA9NaNgM3EvUTCDP17COz8cYNXaY6aGjafb3sKPDy9MfymPVLC9bELPm2jECsTLcc5y/1qsHx2tDXzzm1LGqaz/m4ufjuda3/Ezk7R8=);strokeColor=none;spacingTop=-3;spacingBottom=-3;spacingLeft=-3;spacingRight=-3;points=[];labelBackgroundColor=none;rounded=0;html=1;whiteSpace=wrap;" vertex="1" parent="IxxaY2BKMCGR-LkCxJqQ-128">
          <mxGeometry width="41.02325581395348" height="39.553373493975904" as="geometry" />
        </mxCell>
        <mxCell id="IxxaY2BKMCGR-LkCxJqQ-130" style="vsdxID=19;fillColor=#FFFFFF;gradientColor=none;shape=stencil(lVbbVuMwDPyavOrYkuPLM7D/wVnKNofSckLZLX+Pu3EUW20VeEvVmXg8uqWju/ft49umQ/N+HA8vm3/D03Hb0X2HOOy3m3E45qeOHjq6ez6Mmz/j4WP/NP1+ezwjz0+vh7/nN5wmXnTQxzMLzecUQSD3P/Brwv/+GCeCLQwPHgvDCoo5YQFFQFtAJUSQykEnugSVkAeT6sN3w74WWxHKyRH6oKlNAXrbqqXEV57l1qgS6j2fpekNc+ibgmMA6lV7K8ocSuC88LdKwnwHC1JvlVsSoKtyqQcKjdwVvAHfXi/lBOJtAgZwriU4iL1CIFmeyUAMtwk9JB0u/ab5fLZ7obDdCBhat3NOkFq7KxBxsq3mxkK4Xv1Sa0Vg9UmUcnUfFs/dSdIkEpDrVbw6I36KX5tB5vsJNrphQYwq07plpFVR9JBpjdLnk2mUrba66WTdeepE3bH+ucuJO+hmNhfM9bJD8KKnVgj9UlPc5kErbA/U4nMjKL5lfPCS4LQDcvcJRRHIq5OK2rqxRikyQnAk329JIeQbkPQ0aZvBcandIlxshsDNziXDnGWVGRCj6nIxVJhlUkXF74rAey+hJna2l6XW+xQlZp5dCeyq1LxDvJKJS6krQzUTnLC1GgPI/nCFtqNDWbZKga2MvPywfLA9D7vd9L1X/y8/8HJo+jikhy8=);strokeColor=none;spacingTop=-3;spacingBottom=-3;spacingLeft=-3;spacingRight=-3;points=[];labelBackgroundColor=none;rounded=0;html=1;whiteSpace=wrap;" vertex="1" parent="IxxaY2BKMCGR-LkCxJqQ-128">
          <mxGeometry width="42" height="40.53" as="geometry" />
        </mxCell>
        <mxCell id="IxxaY2BKMCGR-LkCxJqQ-131" style="vsdxID=20;fillColor=none;gradientColor=none;strokeColor=none;spacingTop=-3;spacingBottom=-3;spacingLeft=-3;spacingRight=-3;points=[];labelBackgroundColor=none;rounded=0;html=1;whiteSpace=wrap;" vertex="1" parent="IxxaY2BKMCGR-LkCxJqQ-127">
          <mxGeometry x="0.4883720930232558" y="0.4883132530120482" width="40.04651162790697" height="38.08843373493976" as="geometry" />
        </mxCell>
        <mxCell id="IxxaY2BKMCGR-LkCxJqQ-132" style="vsdxID=21;fillColor=#2d5967;gradientColor=none;shape=stencil(lZPdcoIwEIWfJrc7Sdb8XVt9D0exZErBidjq2xeaAMla2undcjiHfBt2GW6v9eFSMcmvfejeqk9/6muGL0xK39ZV8P1QMdwx3J67UL2G7tae4vPlMDrH6r37GL9wjzmHoNSYkvwRFStAi29lHwPHW4gJ8RxJkpVgdJTucnZxl1xJsghOJBcmlwSNyYXUlc5vfJsBa9gQXuqnvAqcI7gKOMFVoJDQapCEdogZAmsA1TosL0gF5+vW/CZ+tD/9Bg3GlH1NibmrWZiacgKcLptaPLgyACXo4s97XIO0IHQJuQE6KQqsIpggyZxkMzdxI9hfrvPvuf53YCiWNTr7polbmL+nazdIcWVx9wU=);strokeColor=none;spacingTop=-3;spacingBottom=-3;spacingLeft=-3;spacingRight=-3;points=[];labelBackgroundColor=none;rounded=0;html=1;whiteSpace=wrap;" vertex="1" parent="IxxaY2BKMCGR-LkCxJqQ-131">
          <mxGeometry x="15.13953488372093" y="27.83385542168675" width="20.51162790697674" height="8.30132530120482" as="geometry" />
        </mxCell>
        <mxCell id="IxxaY2BKMCGR-LkCxJqQ-133" style="vsdxID=22;fillColor=#2d5967;gradientColor=none;shape=stencil(lZXRcoMgEEW/xtcdWEDhOU3/I9OYxmkaM8a05u+LQ0BYIm3fcL3XOXtdoBKb63F3aStk13HoP9rvbj8eK/FSIXbnYzt0o11VYluJzaEf2vehv5337vmym5Xz6rP/mr8wOR83oHB2Ibu7itEgXeXVGU7dOTVgnRoa0KZg0NCI1FCD4OsGCYhl/dttcD1wJxBgPBKnFjahF9XmIcIgYvIhEpnoUTEKGr0OGxkI/SprMGT0C2roJ4P3pFFKlP0p6NKHJ6V6ShrFc8/gJ8yCvmf0njUWUfznsJHBVRBBiiJtA7VIaS2J1ARXg1EprkVRZAo4YyktKlClEQ9635wsJrvoPSlwnoFyAsrCxpuy2QykQfS3rUXlGSlolaKylJOljIveM5Iky/89jTHbepSOpBhlNmU8gdBnv76RvOQpov0kT0ezLGfAVNqVHUFZPF//fSD/ZrCL5fw/dKeTuz7i9/S+sCV314jtDw==);strokeColor=none;spacingTop=-3;spacingBottom=-3;spacingLeft=-3;spacingRight=-3;points=[];labelBackgroundColor=none;rounded=0;html=1;whiteSpace=wrap;" vertex="1" parent="IxxaY2BKMCGR-LkCxJqQ-131">
          <mxGeometry width="36.13953488372093" height="36.13518072289157" as="geometry" />
        </mxCell>
        <mxCell id="IxxaY2BKMCGR-LkCxJqQ-134" style="vsdxID=23;fillColor=#2d5967;gradientColor=none;shape=stencil(nZLdCsIwDIWfJrcjNuvA6znfY7DOFms7uvn39rYEcQ4sxbtzki+5yAlQO+t+UiBwXoI/q7sZFg10ACGM0yqYJSqgDqgdfVCn4K9uYD/1iUzq4m9pw4PnJKYRgU+2O2R/ZNYat2Lfzb/gDNrIUvJ7pcCqbkphqivc/4Y3dxCyGM1eIc9G8cllNNZyrOv+NsdY4h+g7gU=);strokeColor=none;spacingTop=-3;spacingBottom=-3;spacingLeft=-3;spacingRight=-3;points=[];labelBackgroundColor=none;rounded=0;html=1;whiteSpace=wrap;" vertex="1" parent="IxxaY2BKMCGR-LkCxJqQ-131">
          <mxGeometry x="2.9302325581395348" y="3.4181927710843376" width="1.4651162790697674" height="3.906506024096386" as="geometry" />
        </mxCell>
        <mxCell id="IxxaY2BKMCGR-LkCxJqQ-135" style="vsdxID=24;fillColor=#2d5967;gradientColor=none;shape=stencil(nZBLCoAwDERPk31tjuDnHoLVBmsrtf5ub0sQRdzobiZ5ycAA5pOuRwVSTMG7Xq3UBA1YgJRktfIUogIsAfPWedV5N9uG/VgnMqnBLenDxneZEOlGip09u4pRQ/aG/gTPhFf0Gf8J/otGcdXRkjHc5n3/rC+OuHosDw==);strokeColor=none;spacingTop=-3;spacingBottom=-3;spacingLeft=-3;spacingRight=-3;points=[];labelBackgroundColor=none;rounded=0;html=1;whiteSpace=wrap;" vertex="1" parent="IxxaY2BKMCGR-LkCxJqQ-131">
          <mxGeometry x="6.348837209302325" y="6.348072289156628" width="0.4883720930232558" height="0.48831325301204825" as="geometry" />
        </mxCell>
        <mxCell id="IxxaY2BKMCGR-LkCxJqQ-136" style="vsdxID=25;fillColor=#2d5967;gradientColor=none;shape=stencil(nZBLCoAwDERPk31tjuDnHoLVBmsrtf5ub0sQRdzobiZ5ycAA5pOuRwVSTMG7Xq3UBA1YgJRktfIUogIsAfPWedV5N9uG/VgnMqnBLenDxneZEOlGip09u4pRQ/aG/gTPhFf0Gf8J/otGcdXRkjHc5n3/rC+OuHosDw==);strokeColor=none;spacingTop=-3;spacingBottom=-3;spacingLeft=-3;spacingRight=-3;points=[];labelBackgroundColor=none;rounded=0;html=1;whiteSpace=wrap;" vertex="1" parent="IxxaY2BKMCGR-LkCxJqQ-131">
          <mxGeometry x="6.348837209302325" y="4.394819277108434" width="0.4883720930232558" height="0.48831325301204825" as="geometry" />
        </mxCell>
        <mxCell id="IxxaY2BKMCGR-LkCxJqQ-137" style="vsdxID=26;fillColor=#2d5967;gradientColor=none;shape=stencil(lZLZDoIwEEW/pq+T0qELz4j/QUKRRqQEcPt7WxsjaNDyNsu5N5PJJZiPTdlrwug4Dfaor6aaGoI7wpjpGj2YyVUEC4J5bQd9GOy5q0Lfl5701clevMMt6FgKmHkVo/cwSSh99vuAt6ab4akCqRa4YODbNYFESGS8/2sZBQsOii9wd57K1gWZBL485oe7pCDTWPj7L8iBi3UBE6Aw1p3GgpiA3PKQDc/eGJS/uCvemaxN24ZIz/efGXajkH8sHg==);strokeColor=none;spacingTop=-3;spacingBottom=-3;spacingLeft=-3;spacingRight=-3;points=[];labelBackgroundColor=none;rounded=0;html=1;whiteSpace=wrap;" vertex="1" parent="IxxaY2BKMCGR-LkCxJqQ-131">
          <mxGeometry x="8.790697674418604" y="2.9298795180722896" width="3.9069767441860463" height="3.906506024096386" as="geometry" />
        </mxCell>
        <mxCell id="IxxaY2BKMCGR-LkCxJqQ-138" style="vsdxID=27;fillColor=#2d5967;gradientColor=none;shape=stencil(jVbLcsMgDPwaXzWAeJhz2v5HpnEaT9Mk4yRt+ve1i7FBih83hNcsKy2CAjfXw/ZSFUpcb835s/qpd7dDgS+FUvXpUDX1rR0V+FrgZn9uqo/mfD/tQnzZdshu9HX+7lZ4hP+MAtP9pMRvmBD/0VvAvt+bAJbhI0asTMHioUKoFGjfI/opDfGfB4YZGdeIMYLQc6QavM9plQSnc2qR06IGV+a8Iqc1s0JFTmgNdHFKmOyqn3ElKEu0ttmVOW9pwds56jSJ/ZQ3YE1OP1Sij6UQObX24wYxx0wQW8eIx1V7mpLkOd1ZFJgss1azd0CclSaTSozkaVWQYlaVeYRL7psokVc69d+06kVjl4qqTk5LNBXRTKqcHN/M5j3jsT6tPut5X3A50lkQfk6LI4lstVmZS7EjfXQTP6WGyBkhU92BWafkNUTHqAVoUkJUrISLshU3Lu9NinDbwRgDtyKy21JJN0tMnSMBCSvTjElNpjWr4eRNXQJM85N+rGl/8mBIc+TeHUET1MazuyBdOObXsWvoyYl1jH5RueMd8knDoD0yKQ0SxNpql/Q+ElA60ii4aMtz7ohkZvC8Yyx1gXYwPiz29fEY3iXpd/oQaafCIwZf/wA=);strokeColor=none;spacingTop=-3;spacingBottom=-3;spacingLeft=-3;spacingRight=-3;points=[];labelBackgroundColor=none;rounded=0;html=1;whiteSpace=wrap;" vertex="1" parent="IxxaY2BKMCGR-LkCxJqQ-131">
          <mxGeometry x="13.674418604651162" y="2.9298795180722896" width="3.4186046511627906" height="4.394819277108434" as="geometry" />
        </mxCell>
        <mxCell id="IxxaY2BKMCGR-LkCxJqQ-139" style="vsdxID=28;fillColor=#2d5967;gradientColor=none;shape=stencil(lVPbEoIgEP0aXhnYVcHnLv/RpCaTqUN2+/tgKEpIx952l3OYc/ZCcHWud31JgJ0H3R3LmyqGmuCaAKi2LrUaTERwQ3BVdbo86O7SFi7vdxZpo1N3tT/cHY8zZjnAHi532dZBG9V+QQXQdCk2ZZTxERiRIk4TQCz/fLFiNIrHKhJJZb7053dvfgtOQ4cBfH/RrtE8JvCg+XeIugAhBCPIq5ILKuQ/o8iA2nSKkIVzlrO+BIt8Ca/IOzMlP4p3yW+ENycDa4JTzmc2MrKWZDQT04Q/tn0WaoLPQVWqadw9fr+HB2hK7nhx8wQ=);strokeColor=none;spacingTop=-3;spacingBottom=-3;spacingLeft=-3;spacingRight=-3;points=[];labelBackgroundColor=none;rounded=0;html=1;whiteSpace=wrap;" vertex="1" parent="IxxaY2BKMCGR-LkCxJqQ-131">
          <mxGeometry x="19.046511627906977" y="2.9298795180722896" width="3.4186046511627906" height="3.906506024096386" as="geometry" />
        </mxCell>
        <mxCell id="IxxaY2BKMCGR-LkCxJqQ-140" style="vsdxID=29;fillColor=#2d5967;gradientColor=none;shape=stencil(jZXbbsIwDIafprdWEud4zdh7oFFGNUZRgQ3efqmStnFY2kpcJOZ3P8ex4wo31+PuUleCXW9d+1X/NvvbscK3SojmfKy75uZXFW4r3Bzarv7s2vt5H/aXXa/sV9/tT/+FR/CzCtD0XoI9g0UI6Lf+9x4cPu5d8OBBYBRoHl0GE8hoeYhg0TiantHEogLDVlowLiowVRSwyMFkWEaZ3IHKmElgkcH98Sh18cACpKRgNMAkhTMKVg6EpmRGsT7z3M5hGWU6AcrNMp0GnEVyNpthCdZR5uAwpXjKXhEqODhNwaOolOHEpXzcVBVN1o4xz+An1Xq+YWNjjHwJkuKVAqUyvL94Q/G+0rmaLW0JfLnCJAdpKB8RMMv+P201qQp8pSHrrPTD5Y5Og4wsbYdyWH16g8ANxafdM3Ry8uqI1yvCV1Xp8k/NOXkAU4+88goBWwEOq6Vq9SbtaMCpKmvJqVVyOg130q8sbWdA6cXsOv8YLV9uOixKjycNd8V48YtpOB2a0ynMtvT/fJh5UxiEuP0D);strokeColor=none;spacingTop=-3;spacingBottom=-3;spacingLeft=-3;spacingRight=-3;points=[];labelBackgroundColor=none;rounded=0;html=1;whiteSpace=wrap;" vertex="1" parent="IxxaY2BKMCGR-LkCxJqQ-131">
          <mxGeometry x="24.418604651162788" y="2.9298795180722896" width="3.9069767441860463" height="2.441566265060241" as="geometry" />
        </mxCell>
        <mxCell id="IxxaY2BKMCGR-LkCxJqQ-141" style="vsdxID=30;fillColor=#2d5967;gradientColor=none;shape=stencil(lZPbkoMgDIafhttMICJw3cN7dFq7Mmu1Q+3p7VcnthXdddi7JH6B/49E0OpS7s6FUHhpQ/Nd3P2hLQWthVK+Lovg2y4StBG0Ojah+ArNtT5wft71ZB+dmlt/woP7JGLfo/DJOWdbRitfj1CjQKeyGgFlBGcIOvu7QZn0w5MVU6c4VqEdZPmCiliD0ZDbMb2/Bh6enF8wlIwF4h58qLf19zCGkpWAL4oG6jMBmkKJM57pnTTE7iyBWXSXm5k760C62J3F2JrLII+dOYx9vd7cryLHlyb9s3+84EW0Cz5LcvRVxTs2/j5dqq7EC0mbHw==);strokeColor=none;spacingTop=-3;spacingBottom=-3;spacingLeft=-3;spacingRight=-3;points=[];labelBackgroundColor=none;rounded=0;html=1;whiteSpace=wrap;" vertex="1" parent="IxxaY2BKMCGR-LkCxJqQ-131">
          <mxGeometry x="29.302325581395348" y="2.9298795180722896" width="3.4186046511627906" height="3.4181927710843376" as="geometry" />
        </mxCell>
        <mxCell id="IxxaY2BKMCGR-LkCxJqQ-142" style="vsdxID=31;fillColor=#2d5967;gradientColor=none;shape=stencil(nVXbcsIgEP2avO7ALgR4tvY/nBprpladqK39+yYFwiUGtW/k5Cxn71S0OG1Xx6ZCdjp3h4/mu12ftxW9VIjtftt07bk/VbSsaLE5dM17d7js1/b7uBqYw+nz8DXccLV2NQOFgxWyH4do4PoPebUGb5fOWnBHUKClM/EQB6otdEULKU9x37IG7YSuZCGNwIVjOUgioCqJa+MJo7hQoCgVNxhcdJAgH9aoH7McRBpqUdI3NQhM9UkAM6k+ZyxVJz6JPnAcgOpO7MHCAzrEhFP/vDNRcXzmJSieqo/lmRFXWcnHQo3StQDUqTRLZUXvHKWyrKRJJtzI0xt9XvsWkkVN5CCyJrvXY7wPxGQ9BlJm/T0RjjhJcLMp3rX7aBI92fkon/QQGYhsBFGDVKmPccfQNMmUs2b0pQqTO9+LNxqiz/04qzRleZf4nWaMbXhuU9KPZ7WgX/uJeUJ/3BxBP9qtvkcYGJ7qx7n0cyJBFOsvKVR2fgvG4+a3cDS28/WXxmfpgU7VebJKZL/CblLDfvsHWec9k9LjKB8yeOBhfNqgP4R3eNPudvYZj//n73YP2Teflr8=);strokeColor=none;spacingTop=-3;spacingBottom=-3;spacingLeft=-3;spacingRight=-3;points=[];labelBackgroundColor=none;rounded=0;html=1;whiteSpace=wrap;" vertex="1" parent="IxxaY2BKMCGR-LkCxJqQ-131">
          <mxGeometry x="2.9302325581395348" y="10.742891566265062" width="2.441860465116279" height="3.906506024096386" as="geometry" />
        </mxCell>
        <mxCell id="IxxaY2BKMCGR-LkCxJqQ-143" style="vsdxID=32;fillColor=#2d5967;gradientColor=none;shape=stencil(nZBLCoAwDERPk31tjuDnHoLVBmsrtf5ub0sQRdzobiZ5ycAA5pOuRwVSTMG7Xq3UBA1YgJRktfIUogIsAfPWedV5N9uG/VgnMqnBLenDxneZEOlGip09u4pRQ/aG/gTPhFf0Gf8J/otGcdXRkjHc5n3/rC+OuHosDw==);strokeColor=none;spacingTop=-3;spacingBottom=-3;spacingLeft=-3;spacingRight=-3;points=[];labelBackgroundColor=none;rounded=0;html=1;whiteSpace=wrap;" vertex="1" parent="IxxaY2BKMCGR-LkCxJqQ-131">
          <mxGeometry x="6.348837209302325" y="14.161084337349399" width="0.4883720930232558" height="0.48831325301204825" as="geometry" />
        </mxCell>
        <mxCell id="IxxaY2BKMCGR-LkCxJqQ-144" style="vsdxID=33;fillColor=#2d5967;gradientColor=none;shape=stencil(nZBLCoAwDERPk31tjuDnHoLVBmsrtf5ub0sQRdzobiZ5ycAA5pOuRwVSTMG7Xq3UBA1YgJRktfIUogIsAfPWedV5N9uG/VgnMqnBLenDxneZEOlGip09u4pRQ/aG/gTPhFf0Gf8J/otGcdXRkjHc5n3/rC+OuHosDw==);strokeColor=none;spacingTop=-3;spacingBottom=-3;spacingLeft=-3;spacingRight=-3;points=[];labelBackgroundColor=none;rounded=0;html=1;whiteSpace=wrap;" vertex="1" parent="IxxaY2BKMCGR-LkCxJqQ-131">
          <mxGeometry x="6.348837209302325" y="12.207831325301207" width="0.4883720930232558" height="0.48831325301204825" as="geometry" />
        </mxCell>
        <mxCell id="IxxaY2BKMCGR-LkCxJqQ-145" style="vsdxID=34;fillColor=#2d5967;gradientColor=none;shape=stencil(lZLdDoIwDIWfZrfNto6NXaO+BwlDFpERwL+3l7kQQSOOu9P260naHIJZX+WtIZz2Q+dO5maLoSK4I5zbpjKdHUZFcE8wK11njp27NEWo29yTXp3d1Tvcw55WkEi/xekjdOirOgS4ts0MVhQUxsIiBaUXMAqg+vcCl5BGu9NYEBkotoCFmq6IcGZ0xZsLQB2Pf39EIkix8m8EpuL9p2EULBNI5Za/bErKH3gU70CWtq5DnufzzwCPrRB+3D8B);strokeColor=none;spacingTop=-3;spacingBottom=-3;spacingLeft=-3;spacingRight=-3;points=[];labelBackgroundColor=none;rounded=0;html=1;whiteSpace=wrap;" vertex="1" parent="IxxaY2BKMCGR-LkCxJqQ-131">
          <mxGeometry x="8.790697674418604" y="10.742891566265062" width="3.9069767441860463" height="3.906506024096386" as="geometry" />
        </mxCell>
        <mxCell id="IxxaY2BKMCGR-LkCxJqQ-146" style="vsdxID=35;fillColor=#2d5967;gradientColor=none;shape=stencil(lZTRdsIgDIafprc5kEAK1869h2fWtWfOeqpu7u3XDmwbcPV4Bz8JH4GfFLQ61ZtjVaA6nbv2o/putue6oJcCsTnUVdec+1FB64JWu7ar3rv2ctiG+XEzRA6jz/Zr2OEa8tCA0kMWqp+g6BJU+ae8hoS3SxcydAhwU0ZUkMFRkK4YJBUj4tRoMBwjSEbEqXVgzRJWSWZpgbVkzg4WFa8AjcSimqKipJVaAs+vSOf7RhRhRi/7A1lJJ87o7AD9En+eEyW24GzC54zPCrx7yLcM+km8IfCSbvpbRUknAzqp3riMjh5w0W2WE68ZoATOJitde7Bawt2dhx+j/rO6k3CNgJLt7zw7EEr0zWAjeNFvnqe7lN4fje4kUT2sdBHIyddCMIm57zxvXuX8n9wKT3vJvjk813z6wdS6ds1+HzrffD1tdb0U2iStfwE=);strokeColor=none;spacingTop=-3;spacingBottom=-3;spacingLeft=-3;spacingRight=-3;points=[];labelBackgroundColor=none;rounded=0;html=1;whiteSpace=wrap;" vertex="1" parent="IxxaY2BKMCGR-LkCxJqQ-131">
          <mxGeometry x="14.162790697674417" y="10.742891566265062" width="1.9534883720930232" height="3.906506024096386" as="geometry" />
        </mxCell>
        <mxCell id="IxxaY2BKMCGR-LkCxJqQ-147" style="vsdxID=36;fillColor=#2d5967;gradientColor=none;shape=stencil(lVRBcsIwDHxNrhpbsmX7TOk/mBJKppQwAVr6+zq140RpyZSbo2jt1a6kilbn/eZUV6jOl659qz+b7WVf0VOF2Bz3dddc4qmidUWrXdvVr117PW7T92nTZ/an9/ajv+GWcEEB+x6F6itF0IA2P5HnBDg0xwnAGbASYAx4mgJerl16QqcE9sAmQ3LIYrnlhjlLg+ecNYQUUAbeKAMtqOF5Ktfr+3zNrwI9guP7AM0QrADYAMbfB5AG4scUIT9oXBQhB4GkIsYORIsi8S1FM0UMoJGKoF3wz4JBwXZe3ZysQ/BekuWRRSbmRqsKVzBWUmUHM+/UgnEMrAVRbcHig7KiBmslVVJgtaQaNSAtueKk6hwiBlzoNPVQ04ShRUp1akEMjj0rxXAMblGMqSPjIAae+eZAoxQjDiLOxPAEykoxxgn+e4qUlCM2rg9LdIMDw5Lu1JXMLRhQbuZdEaLQnS61wc7lrfaPNRgP4xLdNYdD2sHT//OlG0NpYdP6Gw==);strokeColor=none;spacingTop=-3;spacingBottom=-3;spacingLeft=-3;spacingRight=-3;points=[];labelBackgroundColor=none;rounded=0;html=1;whiteSpace=wrap;" vertex="1" parent="IxxaY2BKMCGR-LkCxJqQ-131">
          <mxGeometry x="8.302325581395348" y="25.88060240963856" width="11.232558139534884" height="10.742891566265062" as="geometry" />
        </mxCell>
        <mxCell id="IxxaY2BKMCGR-LkCxJqQ-148" style="vsdxID=37;fillColor=#2d5967;gradientColor=none;shape=stencil(lZHdDoIwDIWfZrdNbcmAa8T3IGG4RWRkgD9vL3MxMg1E707brydNj+Bi0FWvBOEwOntSV1OPWvBeEJlOK2fGWQkuBReNdero7NTVoe4rT3p1thfvcAt7OUjyS4T30MBndQhsa7oFixGYQpass1++nALJdV4yJDJayBFowx+Bs4jf4cbpr+GP5n88ZZudxfvzjWnbENxy/pnU3Aopc/kA);strokeColor=none;spacingTop=-3;spacingBottom=-3;spacingLeft=-3;spacingRight=-3;points=[];labelBackgroundColor=none;rounded=0;html=1;whiteSpace=wrap;" vertex="1" parent="IxxaY2BKMCGR-LkCxJqQ-131">
          <mxGeometry x="7.325581395348837" y="33.20530120481928" width="4.883720930232558" height="4.883132530120482" as="geometry" />
        </mxCell>
        <mxCell id="IxxaY2BKMCGR-LkCxJqQ-149" style="vsdxID=38;fillColor=#2d5967;gradientColor=none;shape=stencil(lZXLcsIwDEW/JluNLfm5pu1/MCWUTClhArT07+vUMX6VkO4c+Sonkq6dhlan3frYNshO56F/b7+6zXnX0FOD2B127dCd3aqh54ZW235o34b+ctj45+N6VI6rj/5zfMPV5wkLBscsZN8+whn7fX7x8tfL4PXcbysOQk4JPM9gV/QBTcDspJlCVoIQk4p8yCBwM6lCSIKlOfoNFdhKA+XwKJkCpAHVQzQ3oGbRSgCpHF6UTRKUyNks53Idu72UWxScVpNDAjNpyX3sw06jAlnMOZ1hKNnERpb9D/TUYvSnx/bd4T+WzB2MzpAqkyOCmK/NxpRgLAFMF7XZapzuy2xenGSVk26ie0ZioKnobHxvOEIMLC8am3zihNImqmhh8VZUg3VT1Cbnp6rgKxlV9/nj0Zo/RwSoi/INiILvbH4bEdYqqme/lC+r+ystDCtRdANXD+lV93NrL/CqW8S7etvt9/6qT/fLu92F/H+Bnn8A);strokeColor=none;spacingTop=-3;spacingBottom=-3;spacingLeft=-3;spacingRight=-3;points=[];labelBackgroundColor=none;rounded=0;html=1;whiteSpace=wrap;" vertex="1" parent="IxxaY2BKMCGR-LkCxJqQ-131">
          <mxGeometry x="13.674418604651162" y="5.371445783132531" width="26.372093023255815" height="24.903975903614462" as="geometry" />
        </mxCell>
        <mxCell id="IxxaY2BKMCGR-LkCxJqQ-150" style="vsdxID=39;fillColor=#2d5967;gradientColor=none;shape=stencil(lVbbUuMwDP2avGpsKb49s/AfDBSaodsyoeyWv193bcey0qTtW6JIPjrSkeKOHr62z5+bDtXXcTx8bP4Or8dtR786xGG/3YzDMT519NjRw9th3LyPh+/9a3r/fD57np9+H/6cTzilOKOBzDkK1U+yaKX+vz8l95fvMfnr9Nk6MDYH6DZCnTAZXABH2SebggGVw06UTN6BL17VZM0aejwm9C16BFO6xZ8SKujWgnUtevXJBqPA4hp2jcgG6sG4Fpnnl02IgCiYW+h9i64JjF9Ddx7It/j9hHWqPAtWgVcttBGsV3tNBE5gik5HcsG1gCwrxk3fSddAr1tkXseWW0Hm/aDW49Yeiw5z3Uz0lGlhuQCXGV+VdjyZsIXnQ1M4GtBCYHX8Cks200LtGXs37O/ZAe3KIISeGvfYrUCrQoqCD2JpxB1hRGkJUHJzgF6wQ3CC3OS0tLMUeKEmfnAZHrbZcJ5kBnNM8XQjfedAidbGIoqldWFpUphkNMEzr2zqQ9kMS/AspoxXABTK4knWioSr7F2cCLdafQ9BsPcKUDSf9yibfOy02JwXpF29FvC5rPT8ZJxLFOdZZjDSoPyd/DEWVpSfFbYsUjb9tSK9KD/3urX7UZ1WLHGuK5wnWSoSOyJ+2Xz0l8Tf7pYblkV8qLeTt2G3S5cb/l3eZqIp3YTo8R8=);strokeColor=none;spacingTop=-3;spacingBottom=-3;spacingLeft=-3;spacingRight=-3;points=[];labelBackgroundColor=none;rounded=0;html=1;whiteSpace=wrap;" vertex="1" parent="IxxaY2BKMCGR-LkCxJqQ-131">
          <mxGeometry x="20.023255813953487" y="14.649397590361447" width="6.837209302325581" height="7.324698795180724" as="geometry" />
        </mxCell>
        <mxCell id="IxxaY2BKMCGR-LkCxJqQ-151" style="vsdxID=40;fillColor=#2d5967;gradientColor=none;shape=stencil(lZRNcoMwDIVP463Glvwjr9P0HpmGFKYUMoS05PaFmpSoMzjJTjx/knlIQtHmVO6OhUJ96rv2o/iu9n2p6EUhVk1ZdFU/Roq2ijaHtiveu/bc7NPzcTeRU/TZfk0VhpTnImicslBfkkIO4q/wmvi6am54QghR8AaQ13kD3j6BUwRygrcMAdcTtCyu9TqKEZx5HHcBiAXuETjzKuwA3eP1mcFRDn87d6lTJh1HAnutv0hu7saAs+QhXMvOEgcws5OB5FX6Mgshgs20PTiwckzu9CUyUJDuIiBl/TnQLP2Zvy+++DPARvrzYI20xx44SoO5ThB4ORi5sXhyYe7zY7Bs56Gq67Tct+f/t3mU0p+Atj8=);strokeColor=none;spacingTop=-3;spacingBottom=-3;spacingLeft=-3;spacingRight=-3;points=[];labelBackgroundColor=none;rounded=0;html=1;whiteSpace=wrap;" vertex="1" parent="IxxaY2BKMCGR-LkCxJqQ-131">
          <mxGeometry x="27.83720930232558" y="14.649397590361447" width="5.372093023255814" height="7.324698795180724" as="geometry" />
        </mxCell>
        <mxCell id="IxxaY2BKMCGR-LkCxJqQ-152" style="vsdxID=41;fillColor=#2d5967;gradientColor=none;shape=stencil(lZXbcoIwEIafhtudZDcHcm3b93AqVqZWHNTWvn2hISQbRsC7sPzJt8ekoM3lsD1XBYrLtW0+q596dz0U9FIg1qdD1dbXblXQa0GbfdNWH21zO+3893nbK/vVV/Pdn3D3+5QF029C8esNUoj/7zevfr+1Xi79b+3A4LBB8h3ijt5gEWTQDCanQbpBRd5USkA9qILJgDBz9BEV2MYCSU6PmsFAFvQiWpZg9RzaYDglsLOoCcE4ThYcKwmcehKroJQcixbKkqPzgB1kuRacqhHUHDRPshrPw4lXoeYGHC6Gu1hgJNCG09PWCQFq0CXnxyakSWMTlwzoY316Yg741MSyBXl0/FFkMUHj4GigrJJdr4psdKQErRZjG0WP5rYEaTN8cvDAMklcOHWSxlqrrLCL4TscBzXwuzZVyPmpKri0ih8n+tH4itgywSULMrs7SIHJ+KlqMrTr+V2yRdbYNvb6mH+wlIVPoAzHJ6KV85zsCNeKBNKcnXoY0hHvyZnYJ7Xnk7ViVrpFfJ/29fHon7f0f/6edSb/FtLrHw==);strokeColor=none;spacingTop=-3;spacingBottom=-3;spacingLeft=-3;spacingRight=-3;points=[];labelBackgroundColor=none;rounded=0;html=1;whiteSpace=wrap;" vertex="1" parent="IxxaY2BKMCGR-LkCxJqQ-131">
          <mxGeometry x="17.58139534883721" y="7.813012048192772" width="19.53488372093023" height="19.53253012048193" as="geometry" />
        </mxCell>
        <mxCell id="IxxaY2BKMCGR-LkCxJqQ-153" value="&lt;div style=&quot;&quot;&gt;&lt;p style=&quot;margin: 0px; text-indent: 0px; direction: ltr;&quot;&gt;&lt;font style=&quot;font-family: &amp;quot;Oracle Sans&amp;quot;; color: rgb(0, 0, 0); direction: ltr; letter-spacing: 0px; line-height: 120%; opacity: 1;&quot;&gt;&lt;font&gt;Logging&lt;/font&gt;&lt;br&gt;&lt;/font&gt;&lt;/p&gt;&lt;/div&gt;" style="verticalAlign=middle;align=center;vsdxID=43;fillColor=none;gradientColor=none;shape=stencil(nZBLDoAgDERP0z3SIyjew0SURgSD+Lu9kMZoXLhwN9O+tukAlrNpJg1SzDH4QW/URgNYgZTkjA4UkwJUgGXng+6DX1zLfmoymdXo17xh5zmRJ6Q42BWCfc2oJfdAr+Yv+AP9Cb7OJ3H/2JG1HNGz/84klThPVCc=);strokeColor=none;spacingTop=-3;spacingBottom=-3;spacingLeft=-3;spacingRight=-3;points=[];labelBackgroundColor=none;rounded=0;html=1;whiteSpace=wrap;aspect=fixed;" vertex="1" parent="IxxaY2BKMCGR-LkCxJqQ-154">
          <mxGeometry y="44.42999999999995" width="42" height="13.13" as="geometry" />
        </mxCell>
        <mxCell id="IxxaY2BKMCGR-LkCxJqQ-181" value="" style="group" vertex="1" connectable="0" parent="IxxaY2BKMCGR-LkCxJqQ-24">
          <mxGeometry x="580" y="294.2299999999998" width="42" height="63.33000000000004" as="geometry" />
        </mxCell>
        <mxCell id="IxxaY2BKMCGR-LkCxJqQ-170" style="vsdxID=4;fillColor=none;gradientColor=none;strokeColor=none;spacingTop=-3;spacingBottom=-3;spacingLeft=-3;spacingRight=-3;points=[];labelBackgroundColor=none;rounded=0;html=1;whiteSpace=wrap;aspect=fixed;" vertex="1" parent="IxxaY2BKMCGR-LkCxJqQ-181">
          <mxGeometry width="42" height="43.56" as="geometry" />
        </mxCell>
        <mxCell id="IxxaY2BKMCGR-LkCxJqQ-171" style="vsdxID=5;fillColor=#FFFFFF;gradientColor=none;shape=stencil(lVjbUhsxDP2avGpsyzc90/Y/mBJKppQwAVr4+2pnI3utJVrytnGkPboeybvDm5eH2+f9LriX19Px9/7f4e71YYffdiEcnh72p8MrP+3w+w5v7o+n/a/T8e3pbv79fDtJTk9/jn+nN7zPesEB+kkruI/5hDzE+eTHrPB4eFoqVMg0KFSEkAwFgoLXKKCDsFJIZChEcGlUKBAMeQQMWn54/8+30xwkP/8f2STR8E0lnq18D2ep3ENzPqoRkkjhfJQ8iLHnk8IRKpfNTRFCHMwtGagaCmxtHhUQfL6sED3QqFA9eCuCXATKpArJQGAFrxACZKtqEKq/UgHxGpO48p2/xmkCUj5zp8TL8p4NHgFyNQu/Ao4xygWKUfcrea4UZ8ivDUpoxnTlMVeW6bEDGhsxEkSjtN1VwhK8Jp8lgxfa1kESDWnk0KhCutZDVU3LxSoNJ00be/liIx0KFniGqCgDfYu/gFOjBwHnrJIfwT13L43ooYCrFjrrtJY+H7FFRbkeexuHJiSeNvgEvij4BMlETwLVwCPUqNA5fUWhx3bU0HMnM0FHOboEn6Giwm+V2/GZk/yI7wtUBU9CtQ2enUum91NJxRGe04Eq9exrq2eB59GgCi/kNT6PbDP3XFWows8nNMJzMZLKfYWqvMc+vgS9CX3O85wtgf6ifE2mvHYOSycx31S0cwtqbM4VFVokcFk7F83MskrJGrz1i6wBrgVbwEtbgRqhOFAtXaTJL+0gCKqouHuDgs6gSoopXzUUsyypBYTLzuTRtIJmF1U3JbZ/hHYjbnZQ/IjrNnBz7DNdGqkNbQGehqSmEcA0ghfXl9BG6dHkb96Z2jbXKb2O4LyJOZVrgqCw2cAwYvMkxmiCL7ipU4jynIWy8pyFiqJv3i5RlTnzfjBrrbq+UfumUxU+S1XNYDwrFIfwVqWmBwthMeETBO19lt2sw9eWjgV/Z9XlfJ0JGp/ElQv4FDszdE4nlXvKEsXl/Cqq8qjtcMvhXc3wE9dQHfGZrp3y3zs3ojNbR41OfbsR2tu46xD1fhKi8b2hxPnaR6yQT1yxHDvvddsV87LDQfXjANnYCiut1kJbgVa3o42tlm96abzxbq3Ni/l/VrAX87XC1ua/MmnjarF2euPywr3t1TXfvh0xE9YxcRv3L1ZAhWDf8HLQmd5S8L31vmRSotZAHy0MaG4EKevRyFd+vWmm0N8bWgarmhPcGVUxFTmV1U+WAs0UxEFRTDXdvvWUahXZ96EApPGj5OiLH14ogVFU0xo6yguHXbqhX/ltaluBH/qnsPvD4+P8JW35v/50xkfzZzf8/h8=);strokeColor=none;spacingTop=-3;spacingBottom=-3;spacingLeft=-3;spacingRight=-3;points=[];labelBackgroundColor=none;rounded=0;html=1;whiteSpace=wrap;" vertex="1" parent="IxxaY2BKMCGR-LkCxJqQ-170">
          <mxGeometry x="0.5185185185185185" width="40.96296296296296" height="42.52285714285714" as="geometry" />
        </mxCell>
        <mxCell id="IxxaY2BKMCGR-LkCxJqQ-172" style="vsdxID=6;fillColor=#FFFFFF;gradientColor=none;shape=stencil(lVrZchw3DPwavaJ4H8+O8x+uWI5VcSyXbCfW3weTXQLD5g5G+yaPiW0eQKMB8iG++/75w7fHh+C+/3h5/uvx36ePPz4/xN8eQnj6+vnx5ekH//UQ3z/Ed5+eXx7/fHn++fXj5d/fPmwjt7/+fv5n+4VfF7tcqKXNKrjXy5dAsf7/4ffL+D9+vlwM/OX/i6PqrxZeTPLly69wHZTo+uX1+iVSbNcx8Tqm0vXL6/VLHr9zAF09uT5DV4phhq6RKmB7Rz7N4DVTKjO6j2SjZ+ppRveJkgf4QiUCfKbgAb5SqgCfqQUTv1GEjfeFUgL8TqEDPp9xmfGboxgBv5IrFn7j/YmAX6mWGb8VygHwO3nE7+Rg/cGPUQf43VMJMz57lQf8HqmUGZ/9qsL+90wuAH4jG76IBw/46Cl1gOddTDN8TFTA+/i3xJWun2I9OX62abD96Hu8ql5n8JTI49rZaWHtiefj9+Bfnr7uSIL3dDjQlSRSpZ6PDVqi2u4yqOoPVy5w4A5gEKnP4/lDu2c8b4w1oaYnJAal32NQCrl4x4x4fK73ja/pni2tjrKxRcwvbUbgL8YW1UQ9zOOZVI0Vs4Ew81sN/Dwj5i1v7FEJVPydBm6dkuF3xVNr9xhkdvy47KoZ6expEsaDewMBz2U/6FpivWWB+qWBnceGRHHUYBJd8tTLDN/FcwQ/CmUIPhN0A3xmyAo8v40y4ig6CvMGnxkEyvMRMsE5IzBCpzkumFmLERcsbwp4YTe5hgHyjMCxGwx+5SXM1LGdpLlFaXYpjvVm/b6XDHRkgE4Qsygb8cEqpC5OwJkdxM5GO+iEfEJjA6Ms0PbBonE54NOIZIFPDN8AngMadCZHCuhM1kjJ1Lg5UACpxzZDMUgIJoII3MQfpPqcR7gpfDazLa+qAmO4obxuG3ias/OmFA3/ZKlRwCAPGX1kkPqdBiKv3sTDLNFSussg3cnDbFD9XQZOtO0Rcc8Gnt0cDJyJwIq/zrvEKb1YCLcMkpGiufCBfHgiSlaDE9nDUyoZDYLBvjcNnHHSvK3gfCwNg7Wtq/hsdkKA8DkdDiom5SGEjsh0ppKk7CJMRmEc7KDWNrKU1MsEFRtzdDFJvK0VS5AabkB7r1w3sB05KBp4UwsIiSD16AE8H7WUgqNg47wDrQKuTiOsnUcFgF8LJt6PZKJXDceBLhum6HWkckUXj1f4polmwMfBJ0f4TYXfwHeaG4N8wpKN11ph+QzWsVuRRgV/gM/70yGF8lF32H0+aoR3EqCi4pIKmoijjgWEA+fb/3KQUcWf4xfy4QQfElChmQLO51uVW3fzBdXNUSk9CJ1vAndhWbQ0l6QFdaR4HIG3sAyA5kJaNX+nADSxqQE4rAZZZcGO2rMaXT4VMgM8L5GSZToC3hapx67bLXCWZ0gSUlmo0oIQpQjA+z5mlEFGWjlvfJ41St3QOEcLi5rprp8cLEtdZ6zMiX/Jlu54bDjTmMrReablPKMelTpTB/AkS9x5Mmrn0YI9iqOu3SXp0WKXjMOoQ49W2l+K3bTMEUd25sI5iDtWLSK/BbxKu1qqhnH0e8qpDcGjoTriLo3dHn+DIWvEyUbIDzxoqbB00I6fkz3ZBdwppS5qQZJTVp8XvmlQXnHc4DH5YFd3XmupV9UKuHTOgwU72X3pZmrbfJ+aT4VJgQbLRlMoTLJ4xU4aZIgQzsPiylG2zZm5hm2wk842GfzUI+lpd1fAeaVAt8zcdnunr2tv4mNyf6NtIxUKkOWS3Gq8qh+aksQv0bll3RnZEZL9ltDg0J1K1jGZPHL1zeh02AtNcnNxe/w0ODsyaqauM37L8J2qGOO9XfV5aXwMg2AXQE4J7k0GO3Ur463eOA4vdajzN86nNLO4X1d8ZrDsKRtYHbFOS4fFrNSd3r1cDbx5n7Ex3H39DLf0DL3p0Uy7oSJCtMrWsDSiO+iIMwNGKJZBxGNrwbyiCAUr9TMDt0wJi9DlHAIYnPRunVZaV1fxZqXBwqVDO7nBNfbafp6FgnfuePh2xxiW3zf4hUkYHKPnwVC3DXbC/moQqZn90aRVoxeTAPmTKRkbC7yXeBOb+nITzUcUTZnHynppThc5N1HX+kmkU1xUZu7a5tPLcWe4SHHj5nAXSNW6ZFoMmjOv+tggwo1DGFn79kVZ0U18q0Fu90xpNThZdK0qDwQhWAZN1YEwYLZuXN3ofe451hjfsPNYg3nH3B0mOk4T1q4ygmjR60l2KBIXg7TkLat1z6EBt2MnBhxxac29Bj2tBjnYx7BMKQeTANdFnxsAxbJiqsa28sG5pWVsMGDfFVlvHA9yYLuJsja1YECnNiqZI5ne9d5I+8YdKrSROlSmF6nq5b1HW94acVKxX1rtH6hohVKhLbORPr61cdrg1Qtnjw2MCml+6VxnfXGib50itKSYzrF1vK8jlc6xIeblJcIRvgPwtHSOmf8i9MO0J6sPvdrSl+Kizb4u2K7vAD5KPSbwdeRohQ/L2fOoDG0MHhXNDk7NKqalNYCNUKZOQM96szAuLLq0u7UZaGf2squ5pWj0ICyKJ6yN3Yx8oxuI3bqzbiCOn7uByeNbmS1ZGZSR4nJn7+C93XILjCWHvMK6vQSPLLndM5tezibyvmYcflku+fNOjYTFrWTL9Y3lqzqf/aQtFWUGL9sI8Kw15ZnRiPtE2KfMIj93Twy89Yhid+UmvxosXR2WCi2Y1/KxLwro1GD1Eet91GrApFSslwJLYtwkk/20oC5+bt043x8Y5wb8hz5f/vT05cvl9fP+//G5M3+6PJWO7/8D);strokeColor=none;spacingTop=-3;spacingBottom=-3;spacingLeft=-3;spacingRight=-3;points=[];labelBackgroundColor=none;rounded=0;html=1;whiteSpace=wrap;" vertex="1" parent="IxxaY2BKMCGR-LkCxJqQ-170">
          <mxGeometry width="42" height="43.56" as="geometry" />
        </mxCell>
        <mxCell id="IxxaY2BKMCGR-LkCxJqQ-173" style="vsdxID=7;fillColor=#2d5967;gradientColor=none;shape=stencil(lZTRdsIgDIafprc5kACBa6fv4Zl19sxZT9XNvf3oADV1cuYdpH/4IH+ahmaHzXLfNqgOx6F/b7+61XHT0EuD2O027dAd46qheUOzdT+0b0N/2q3Sfr8clePqo/8cTzinvKDB+DEL1XeKqN/dIolfT0NS6yxXoDnLcwjB2RQ5Y4p4D1zOzCELlDWUNQwmS3KEwVMNzQEsTdAagkRzvJ+WaCLQkm0DsGQbVW78AG4CTNjGg5m8m/wd3CIYI+nowEt6FFm8pW+73Y1FSIClVv9LCKBJJBgEqugVBNkD0YzwWK+E1hnQ5pnDtVLVu1uh9jbb97ccgeVTmcDVEvjawA8S7rzXoIqt+pJDpamK0wack+a7WMVJ28cQ4sR9hmrrxb7nyS9nGJyX+PhjBivxsfGVk/hS+gtcm5rRwQKKWjmwXJHXZ8lT4ri4jqx1t92miXf7fTriYiiNR5r/AA==);strokeColor=none;spacingTop=-3;spacingBottom=-3;spacingLeft=-3;spacingRight=-3;points=[];labelBackgroundColor=none;rounded=0;html=1;whiteSpace=wrap;" vertex="1" parent="IxxaY2BKMCGR-LkCxJqQ-170">
          <mxGeometry x="9.333333333333332" y="34.22571428571428" width="14" height="7.7785714285714285" as="geometry" />
        </mxCell>
        <mxCell id="IxxaY2BKMCGR-LkCxJqQ-174" style="vsdxID=8;fillColor=#2d5967;gradientColor=none;shape=stencil(lVTbUsIwEP2avu5ks7ntM+J/MFKkI1KmgOLfm5pLSRwy+pacntOzt2xHq/N+c+o7Kc6XaXzrP4ftZd/RUyflcNz303Dxp47WHa1249S/TuP1uA3302Zmzqf38WP+wy3orAOHs0qKr4CIn9tzIB+G4z1ZgCy4qIBtg29AUyGQGqxpCAhcm/9ynUL4GAhGgNNRglnDAbnJgCgHIsURIRKgTGRRhAykSiSEAW3LXapEyO7KgnOlPRKQLu192NqV9gqkLe3n8smmfa5WBKwPuModgarUHeaSJW9RGjsFRj3ukoayqUxg3WO6A1M2FYVoZYUCEMu82ALKKi/MFUyJscq5psR86aueMoJpFxWXYUlltUmT7ef54aqn5tdIKQFMpb92YLnlr33HqrZ6qE7fSDClvR88LN39a2JduiuToEcP1ibF3wRiGe0YqwXmhoCX6kbET3Fj2NKwJLp/pboV0L/2WZvsD8va3A2HQ9i699/rNeuhsKJp/Q0=);strokeColor=none;spacingTop=-3;spacingBottom=-3;spacingLeft=-3;spacingRight=-3;points=[];labelBackgroundColor=none;rounded=0;html=1;whiteSpace=wrap;" vertex="1" parent="IxxaY2BKMCGR-LkCxJqQ-170">
          <mxGeometry x="18.14814814814815" y="10.371428571428572" width="14" height="7.7785714285714285" as="geometry" />
        </mxCell>
        <mxCell id="IxxaY2BKMCGR-LkCxJqQ-175" style="vsdxID=9;fillColor=#2d5967;gradientColor=none;shape=stencil(lZjdcts4DIWfxrcYkuDvdbZ9j06bNp7NJh033U3evlAtgOJRRHfvHIX0Z+Ln4FAnvvvx8On7/Sm4Hy+X57/v/zt/eXk48V+nEM5PD/eX84t8OvGHE999fb7cf7s8/3z6cv37+6dl5fLpn+d/l294ve6rlWpedgX3dn3CldLvBx+v6z//vFw3+HVHptzWHesjTlTi9dFrWFdFCrpqfcRMZUW98rrKU6nrqvURB8pxyneUK/ADhRFfGuUEeE+hjvhS7RcpPjRqPMOXQrWM+CARa8Av5IEfskXa+FnP2vlRv/6In8gB3wsfzx+oAN8zOR75uVFtI1/Koc7wuZALIz5SAXqWTMPhbZexneZM0Z6cn6FTJji4G7GJyfPIdVT8yI1yZqg4DegBN2aKAE4UeWRH7ovWR40Y6i36njs9dKQ0pzviONJ9tuJSPDf7RZbvQlxGvrR2xKBX8mHG59L39HrTFjB+JkZ+Ix+Bnyjg+Su1Kd5R2+NdHfHSW6mOeEl9gnJfMg25l0yWafjlFAnVzgrV+BJrj2pXKUP4JW+cRn4sFKZqu+Qa0i8VzJB+n7DhkreEGF6UA9ROOsbN8XGX/RQ1ZB3PlAEvPxuK34cuyYovuuoA37Q4jS6yUSH5uS/SJxJokBtWWTd4mcq87/qpwtt6Qk1dIohsLT03rIs8HLsl/Xkr/PH8tBnJq6qt47i1sUHGtZW4/Y/lTcXGlhftknfXb3O2bvAU8/GG2MN2sH6n6sRjnGuiivNkp61iAmIb41x7C2qGk463w/KC1i4bjxAsBN5DeUnQYKpIn2TorSyT/GZrA18GZ8DeKjbcjb8RoC6jCXu73pKWvbQlGWworY5A2FMwa2fK6nZGJt4QdumwAFM1Bqtmo28ku4+ahHiRP+juxUZO59rSOmAj5VHGueqt6bc+DqLPkRr6SBmbUxsrx0AbK3sKnH+Z2FB9sophropHcHD+RRWnAideJMNgke5tMNjE1iA+UIO5FqN1zVsviPnxxVQFP+KlHwKEX4ooo60wu2b8Zdb5ke89+bnsyECA4m87vEyxisJjWTN66/chFXgVpyMTHUxA7PDWZiZ6aecpRIsinF20KAJd5nydGuncLXCXAnSU5Z3KZxsfdoORaoDp1kN0dINhuzBsLFUB3Skin5B6aTPUXblBhRG/9NWtC1wC4eF+D9xcID14GumyALNdxlBFR+e0P47ur2wauxE+D7IvU7BF4Md+zVN+3Vk6cZTzsdOcwUz2vZWa8mVuQ/EtswHwravD5lY3p8feq1qO/UZr9I2gakLc7jolPgplr9zy88se6Pvqd9EXfkJnl3f3CTl+hOjfsEfyJaqwf+anausyZY4tTxxb64d5U2Vxk+VZLwB/utyGhv2cMvdYbZdwMcnYbkrt6c79kqex3XucpXTmF4jS3Vu/vzgsdt69LVqaDQ3m5lVZv1Cn42jdfrcmH/qLua/nx8fre73t//FFnjy6vgTkD78A);strokeColor=none;spacingTop=-3;spacingBottom=-3;spacingLeft=-3;spacingRight=-3;points=[];labelBackgroundColor=none;rounded=0;html=1;whiteSpace=wrap;" vertex="1" parent="IxxaY2BKMCGR-LkCxJqQ-170">
          <mxGeometry x="1.037037037037037" y="0.5185714285714286" width="39.925925925925924" height="19.705714285714286" as="geometry" />
        </mxCell>
        <mxCell id="IxxaY2BKMCGR-LkCxJqQ-176" style="vsdxID=10;fillColor=#2d5967;gradientColor=none;shape=stencil(lZfdctowEIWfhtsdSavf6zR9j0xDClMKGUJa+vZd1ZZkHReR3Bkh+9PZn7P2hh/edk+v241Rb5fz6cf29/75stvwl40x++Nue95f5GrDjxt+eDmdt9/Pp/fj8/T79SnvzFc/T7/yE67TfVqpfI9Rf6bfTpGN/1a+Ttu/vZ+n/RpvmBesIj/doa5mWkqBVJp3zUusSet5F8+7NHk375qXjKEURvToyeiery1F0/NDLCIqv60UvE9kucdbCjyie0Uce7qiBOJzBLmHq54sESsnLmRNSY/IEj7UzSvZEj1OKNvZHq4d2QBwWfLDqNenFPgCVehyHpC9OPQVdbaY12DcgEO55fCC7paDQl4k6oq5reRWADdlW8h2LqzQwxflV4PuV7pbYVd8K//bOdeQ80VjFf6i/Qq/tmiht6ZuOZ/33GA732KKjV/InmsmCjlFCqD8P22WJD7DwAcpSCi4xBRsz4+Sd8ArAnp0BBZTV26w5RnVuzSCqsG10xR2PjODwVWdH6+5HEHT4xdxvmKGC32RryvjnlUVzOzD/viZSdAPDuNbnD44Opa3lOHhmkEVFwvkXK9OahzLiqXDe3nsaWhizKRcT2dDFl1MAgmZNYlM6ulWkwMfk2PbEd6KeOgo4+pT6vDQpYIr3ZEC7c5RwsHpSv5vj64AsTdNam1pR2atnk3P97FVP9dIxuEAC6b1gq6hZpAfLHnQn3Pve760mgMzlToaJj/41QjL5eoALzkC+a6Ny4q3pCH8El01zH6W76GtLfkeL+agfI+XUDs0VLvKfpBBOzQ1OV+E2g9MCWpfTERB9EN9NWjVp0lB9MO9FwgbWsU0j8fOt3b15hSa2EXvMbS+aBm/uHFcVZ9kBJuPRQbqX7zcllIXH0FXj8Rj75HHgH7v62Oq80lfgfOJ9xvQn41mXX76nvPq0PNdaC/kzWoA77i0dcOvJuqdufKBQfHpG+SifdC87A+H6Xto+T9+AMnS9PHEj38B);strokeColor=none;spacingTop=-3;spacingBottom=-3;spacingLeft=-3;spacingRight=-3;points=[];labelBackgroundColor=none;rounded=0;html=1;whiteSpace=wrap;" vertex="1" parent="IxxaY2BKMCGR-LkCxJqQ-170">
          <mxGeometry x="25.407407407407405" y="22.81714285714286" width="6.7407407407407405" height="6.741428571428571" as="geometry" />
        </mxCell>
        <mxCell id="IxxaY2BKMCGR-LkCxJqQ-177" style="vsdxID=11;fillColor=#2d5967;gradientColor=none;shape=stencil(lVrbchs3DP0avWJIgtfnNPmPTOPUmrp2RnFa9++LrUTuApDA3Td5BZjgAXBwWZ3w08/nrz+eTsH9fL+8/fn0z/nb+/MJfzuFcH59frqc3+nTCT+f8NP3t8vTH5e3X6/frn//+LpILp/+evt7+Q8fV71awJVFK7h/r08ipPz/gy9X+Zfz61Y+gPNM3gcIxVDwUNpBBVeZgnssnDOE/cIJUjliCilgOqTgAMMBNJODxsEJoR95VyE2qJErRMjWCQglMwWM4MJBhRgNkwqgUBg471RICXwzFAh0jlLKENFQ8PIOqUFksP7+63JNAz9UYj/j9ih78NdD3EcYUr7Df3uUwzjrA29SDkrPkdujHAH9Y4OxQUNmcC7gDbdGBMfjoESo9gmeY0iZHIw4ICd6nlkldzfcV0DIQqF0HB6AjgFq4aCXCkmATlIucNBLg8Axx41ncAgVI0hCg8STuzpboULjUdUcRMNJAfvXexU2eOwzycvMUJeWmAcywQvMVzRv+PoNNkE75gawr1Ak5tLl3F5fIHDMJ0HlEQKP80nYNknAk7wgQo+HMs8Tt/ArUG5HE3JSGUZ1biFPV4G5W8Orc4sfcA3MHeTGMSdus+iWNLwgw9y9e78CSG5Gq74w4Rg7OA9N4fLYb/NIPvPwXqg1mFhvUOws08AlgfXGI51lCkTBKVtXd5pJUK3gCJB4+BErWtW2jUN7OSe4LWciIA9XSikLQaq1ol9AqAajUE5XfoDqSBTkDXLikBMvSRYn3hGMQk+qiG7Sw8oRJym0GDBAEz1d6//jESknQcpmA0Vfu3ZMXpTBiUFUuQI3SF35Tt0cxc5rMNe6OZrLoP2CI0CraFYmPSjlgIgQO6Qo/1CMDGbMEikEcYCdFDGvvds4wPIRWZQEr5htOnXA6dAcQAoi7WYKRIScCIw5RueoLezDEVOGc/bKq6bFBpOCS4w8JG/MF1kWaALXH5S37HFcOEEz+JoLq8o/sYTmSYMItDj1RkbrooAsqTcVOx3VUp/N90VCrX003xlqcwURyN4ZoayTxBZXSUjmWJGj03ymoHiEEK32+C6qFfW/3vAxKYj1TEEzQGOSQwpFUbRMuqfgrOG6jtZ1DWsrwegO5ZBCCtIPk0TTCtSIVoOzEtUH1YlaY0Kqa8Xd2YmSyujtHneiJFW6gx93omlMaDsbUVJoHPNJI0ozgSCHSdHNTnrVrurkQrEHnLQNerU37USX0Y0jfqcRJaE270Tzhpr2daLF9Tzb2fgVL1epdmdJVBHrEfnS83ivQVXy67QTLQ1k668b0erWNerjRrR68EUgbjeiNfT77wypmiGLYcGM2eYUIHZS1AKJu3SSdlRgxAitEltCTipjwOi8smGMjnlbF4SdVzbsg0MKRfOveE0YrBbQE+ZsUa42J9ysFVLqgb/TpMmCo6qBRK1QFOgbONf1cJCBvnHNuh4eix7UPl/Xw1Z902FFJBYMSHTgloHqzsyY7NmW3BPdp73Jo/QWFs22wwttiEC/sx1eGAg55no7vDCbgHyyHS7qvdhkFXuHnakgGPIOmj8mL9YEZFC2xonNnceVsxnlFFVF7uPbaHxGAc2r5etyOBYOOUkJZiFIs5GVS4NwJKCyWg5OQpaaPjGe0MCEBuREIzKLUqfQR+/ORJ6SSVbzrd8X0gBhlWj9RpK4IduvMMU7z5mCarvMIUu/rZ2JFzVTWiOWft88U1CJO5nJmiJX8rLFlQ1HsG8GdauiaYXJGtkd2jNI8ckOg8wRIUGDr1VM7slbQdrUdBViHxZ2+mzyI4SpPH1Yf/Hw/fzycv3BxPZ7+QsJenT9dQV+/g8=);strokeColor=none;spacingTop=-3;spacingBottom=-3;spacingLeft=-3;spacingRight=-3;points=[];labelBackgroundColor=none;rounded=0;html=1;whiteSpace=wrap;" vertex="1" parent="IxxaY2BKMCGR-LkCxJqQ-170">
          <mxGeometry x="4.148148148148148" y="17.63142857142857" width="33.18518518518518" height="17.11285714285714" as="geometry" />
        </mxCell>
        <mxCell id="IxxaY2BKMCGR-LkCxJqQ-178" style="vsdxID=12;fillColor=#2d5967;gradientColor=none;shape=stencil(lZfLctswDEW/RlsMSfC5TtP/yDRO7alrZxyndf++UCW+rkayu5Noioe4uADpgZ8+9i/vu8Goj+vl/GP3+/B63Q/8ZTDmcNrvLoerPA38PPDT2/my+345f55ep/f3l3Hm+PTz/Gtc4TZ9p8YvjPozvdlEzvwb+TpN/vZ5mWbrfvr86hKxnoZuZhoylOY584CPFOehG09DkdjOk+aREEjxFlgzhdjDoyMdAK7z/gs+1aGMZ0Uu9PzkyIQtPifypuenRMr0/FG/2PO1Uj1dNNMR6JFU2qKLhiEB3ZdlMl1E9HoRvfUgviUH6tehFX6zTOY3sMxvttQkP0DyJVjd46sia8lX4LtRZ0h9k40Mb3J2W+S50Ksb1oN33PMbn2X+6EZMPS+Crz6v4hO7O7mPkPtSYxne1GGGg+tqZRew2vS7J4Z6Uz3T1OgyU8QFvbU4q6eWkRWwrKEh2kbGPriSaNksCK166qKxHQ+nx7tg3zIDU9LbH2BQ7Sc5TlsrM9evIWtB0UQGIvOJwMGeabN6vacE1esDOaheWUW5nh4UBd3TXSSberxs229mVIKH+gm2rFJaZ8SDQyYliN1aUh7oNtf9eudGR0k6FGjPloJfRO9jz2dNBviipN7s3SZQCD1fpPYQvviesZpk47bnG9EN2of4iLf5vOjdo1/dopoTxC9i575X+I4i1LPImzbTP8Zvez7XYIv+ihJ4X8S2kH/5UAFf+mfYbCiyQQ3xG0i+5eK0DDf1lCzmi9XHjLPWvG+qYXTNIfCdqxeS6occaVN6Hirf+DvXFq8X5pN8YO15S5B7IwcKtPKxi8C9RTLktzuPLAPhs2gNR3eQqoLOIx09QPjSZtzSe/Fe343gPWvqdbQ2Ggenp/W5qiu/mfXYqfLAQfHfH8hDvcq/HY7H6Z9A+zte/WVo+tvAz38B);strokeColor=none;spacingTop=-3;spacingBottom=-3;spacingLeft=-3;spacingRight=-3;points=[];labelBackgroundColor=none;rounded=0;html=1;whiteSpace=wrap;" vertex="1" parent="IxxaY2BKMCGR-LkCxJqQ-170">
          <mxGeometry x="9.333333333333332" y="22.81714285714286" width="6.7407407407407405" height="6.741428571428571" as="geometry" />
        </mxCell>
        <mxCell id="IxxaY2BKMCGR-LkCxJqQ-179" style="vsdxID=13;fillColor=#2d5967;gradientColor=none;shape=stencil(pZBJDoAgDEVP0z3SIzjcw0SURgSDON1eSBcOC2Pi7v/2tWk/YD7pelQgxRS869VKTdCABUhJVitPISrAEjBvnVedd7Nt2I91IpMa3JI2bDyXCZFmpNjvvmLYkH2BX9DP4K8DHnAU558tGcMxXfvPXGKJM8XyAA==);strokeColor=none;spacingTop=-3;spacingBottom=-3;spacingLeft=-3;spacingRight=-3;points=[];labelBackgroundColor=none;rounded=0;html=1;whiteSpace=wrap;" vertex="1" parent="IxxaY2BKMCGR-LkCxJqQ-170">
          <mxGeometry x="17.62962962962963" y="23.335714285714285" as="geometry" />
        </mxCell>
        <mxCell id="IxxaY2BKMCGR-LkCxJqQ-180" value="&lt;div style=&quot;&quot;&gt;&lt;p style=&quot;margin: 0px; text-indent: 0px; direction: ltr;&quot;&gt;&lt;font style=&quot;font-family: &amp;quot;Oracle Sans&amp;quot;; color: rgb(0, 0, 0); direction: ltr; letter-spacing: 0px; line-height: 120%; opacity: 1;&quot;&gt;&lt;font&gt;Scheduler&lt;/font&gt;&lt;br&gt;&lt;/font&gt;&lt;/p&gt;&lt;/div&gt;" style="verticalAlign=middle;align=center;vsdxID=15;fillColor=none;gradientColor=none;shape=stencil(nZBLDoAgDERP0z3SIyjew0SURgSD+Lu9kMZoXLhwN9O+tukAlrNpJg1SzDH4QW/URgNYgZTkjA4UkwJUgGXng+6DX1zLfmoymdXo17xh5zmRJ6Q42BWCfc2oJfdAr+Yv+AP9Cb7OJ3H/2JG1HNGz/84klThPVCc=);strokeColor=none;spacingTop=-3;spacingBottom=-3;spacingLeft=-3;spacingRight=-3;points=[];labelBackgroundColor=none;rounded=0;html=1;whiteSpace=wrap;aspect=fixed;" vertex="1" parent="IxxaY2BKMCGR-LkCxJqQ-181">
          <mxGeometry y="50" width="42" height="13.33" as="geometry" />
        </mxCell>
        <mxCell id="IxxaY2BKMCGR-LkCxJqQ-182" value="" style="edgeStyle=orthogonalEdgeStyle;rounded=0;orthogonalLoop=1;jettySize=auto;html=1;entryX=0.48;entryY=1.35;entryDx=0;entryDy=0;entryPerimeter=0;" edge="1" parent="IxxaY2BKMCGR-LkCxJqQ-24" source="IxxaY2BKMCGR-LkCxJqQ-171" target="IxxaY2BKMCGR-LkCxJqQ-113">
          <mxGeometry relative="1" as="geometry" />
        </mxCell>
        <mxCell id="IxxaY2BKMCGR-LkCxJqQ-191" value="" style="edgeStyle=orthogonalEdgeStyle;rounded=0;orthogonalLoop=1;jettySize=auto;html=1;entryX=0.387;entryY=-0.013;entryDx=0;entryDy=0;entryPerimeter=0;" edge="1" parent="IxxaY2BKMCGR-LkCxJqQ-24" source="IxxaY2BKMCGR-LkCxJqQ-105" target="IxxaY2BKMCGR-LkCxJqQ-131">
          <mxGeometry relative="1" as="geometry">
            <mxPoint x="471" y="211.00000000000023" as="targetPoint" />
          </mxGeometry>
        </mxCell>
        <mxCell id="IxxaY2BKMCGR-LkCxJqQ-203" value="" style="edgeStyle=orthogonalEdgeStyle;rounded=0;orthogonalLoop=1;jettySize=auto;html=1;exitX=0.5;exitY=-0.095;exitDx=0;exitDy=0;exitPerimeter=0;" edge="1" parent="IxxaY2BKMCGR-LkCxJqQ-24" source="IxxaY2BKMCGR-LkCxJqQ-102" target="IxxaY2BKMCGR-LkCxJqQ-96">
          <mxGeometry relative="1" as="geometry">
            <mxPoint x="271" y="211.00000000000023" as="targetPoint" />
          </mxGeometry>
        </mxCell>
        <mxCell id="IxxaY2BKMCGR-LkCxJqQ-126" value="" style="group" vertex="1" connectable="0" parent="1">
          <mxGeometry x="870" y="410" width="42" height="70.15999999999997" as="geometry" />
        </mxCell>
        <mxCell id="IxxaY2BKMCGR-LkCxJqQ-114" style="vsdxID=20;fillColor=none;gradientColor=none;strokeColor=none;spacingTop=-3;spacingBottom=-3;spacingLeft=-3;spacingRight=-3;points=[];labelBackgroundColor=none;rounded=0;html=1;whiteSpace=wrap;aspect=fixed;" vertex="1" parent="IxxaY2BKMCGR-LkCxJqQ-126">
          <mxGeometry width="42" height="42" as="geometry" />
        </mxCell>
        <mxCell id="IxxaY2BKMCGR-LkCxJqQ-115" style="vsdxID=21;fillColor=none;gradientColor=none;strokeColor=none;spacingTop=-3;spacingBottom=-3;spacingLeft=-3;spacingRight=-3;points=[];labelBackgroundColor=none;rounded=0;html=1;whiteSpace=wrap;" vertex="1" parent="IxxaY2BKMCGR-LkCxJqQ-114">
          <mxGeometry width="42" height="42" as="geometry" />
        </mxCell>
        <mxCell id="IxxaY2BKMCGR-LkCxJqQ-116" style="vsdxID=22;fillColor=#FFFFFF;gradientColor=none;shape=stencil(lZPRDoIwDEW/Zq9LWUHCs+J/EAVZRCATFP/eYYdsAzW+td2922mzMtxey6zNmYBrp5pzfpfHrmS4Y0LIusyV7HTEMGW4LRqVn1TT10fK22xUjtGluY03DOSLOEajScCDCknC482rsif9oVdkCEggeIjGEfgWGASVwChMmsQchVGgqzBpEvLQfrWStUUJDuKb+QMhuHgz8ERnteDyTnDWVBzcVTiNvnFnCN/o9Cyi2CUEFy8Ab3xWB+hLfOJVxFnuI3+AnA1L6kEsG/HJB1zOxkNfBf39Hf/V62D++4WsKlod+9zfFV2iPcP0CQ==);strokeColor=none;spacingTop=-3;spacingBottom=-3;spacingLeft=-3;spacingRight=-3;points=[];labelBackgroundColor=none;rounded=0;html=1;whiteSpace=wrap;" vertex="1" parent="IxxaY2BKMCGR-LkCxJqQ-115">
          <mxGeometry x="0.5" y="0.5" width="41" height="41" as="geometry" />
        </mxCell>
        <mxCell id="IxxaY2BKMCGR-LkCxJqQ-117" style="vsdxID=23;fillColor=#FFFFFF;gradientColor=none;shape=stencil(lZXRdoIwDIafprc9aUOBXjv3Hp6JgzMGHsQN316whbYBQe9K/INf/iSU4e6SH84Zk3Bpm/on+y+Obc7wg0lZVHnWFG1/YrhnuDvVTfbd1NfqaJ7Ph0E5nH7rv+ENncnTyFENWRJuJiI5po/Ap9F/XRuTIGyG4pG2GYKkQCetKOE4imwo4tJGOpyLbCjmEfp/XhaVD+slTPipWKX1UlwBWhFcryZXQRoTXs8rpKpF4L4cEfJSPeXtXUoJbsJjGeI6v2+ugESEtJ7I8avkOayXsNwMyuoliFmP5ayeGXyHM5co+/IYbM7su/qtnYA3WgzrlqUqtAxCv4CaRYcQQqfWFwYCss1lAUYnT0R08iZ+GxEAbKObo+RZc1S400S+sNGCeOgYKJS3zVMpSDWvrYfTv7YdWvMkpt/JqZsjV8y1CFGJnQsfnXU310a3P7iL4FSUpblH/N/pxdGHzKWD+zs=);strokeColor=none;spacingTop=-3;spacingBottom=-3;spacingLeft=-3;spacingRight=-3;points=[];labelBackgroundColor=none;rounded=0;html=1;whiteSpace=wrap;" vertex="1" parent="IxxaY2BKMCGR-LkCxJqQ-115">
          <mxGeometry width="42" height="42" as="geometry" />
        </mxCell>
        <mxCell id="IxxaY2BKMCGR-LkCxJqQ-118" style="vsdxID=24;fillColor=#2d5967;gradientColor=none;shape=stencil(pZXdcoMgEIWfhlsHWbX1Ok3eI9OYytRqxpgW3r5a5GcXQzLTO9g9ON8ej8hgd22Pl4YJfp3G4bP5kaepZfDGhJB924xymlcM9gx252FsPsbh1p/M/nJclMvqa/henqDMubrMXsrllODaVHLO//YHI+9kH8iLTCTV77fRPD03bbGKc6zmSpjCutXrtn5d24DbQGE34Tgic6h30DhGExhMYDCOuQIbEOkmVl0hrqRf1gCNIS2V809jTMvl+xR0k8zLEekdNq8msIq8PU1pVfT+HGAybQ/DibMchRNIXOhEBZ7Hyd1EvmJnKvBEEA2UdhzoQGnLA7n1vHJDKozkvqEqKzFknFaneSawVBxl1iMFlATSVwJOQUADEWzZQzEz7OWjLz44gAOgYiQdJUABcYdG4LkL85/yeeGv8rPsOvMnCPv06p9L5rcB+18=);strokeColor=none;spacingTop=-3;spacingBottom=-3;spacingLeft=-3;spacingRight=-3;points=[];labelBackgroundColor=none;rounded=0;html=1;whiteSpace=wrap;" vertex="1" parent="IxxaY2BKMCGR-LkCxJqQ-114">
          <mxGeometry x="1" y="1" width="40" height="40" as="geometry" />
        </mxCell>
        <mxCell id="IxxaY2BKMCGR-LkCxJqQ-119" style="vsdxID=25;fillColor=none;gradientColor=none;strokeColor=none;spacingTop=-3;spacingBottom=-3;spacingLeft=-3;spacingRight=-3;points=[];labelBackgroundColor=none;rounded=0;html=1;whiteSpace=wrap;" vertex="1" parent="IxxaY2BKMCGR-LkCxJqQ-114">
          <mxGeometry x="6.5" y="11.5" width="29" height="19" as="geometry" />
        </mxCell>
        <mxCell id="IxxaY2BKMCGR-LkCxJqQ-120" style="vsdxID=26;fillColor=#2d5967;gradientColor=none;shape=stencil(pZLNDoMgEISfhitBtlbu1r6HiVhIKRjE/rx9IRyqNMXa3mbhm81kMwjqUbQDR5SMzpozv8nOCQQHRKnUglvpvELQIKh7Y/nJmkl3cR7aQAZ1Mdew4R59BSHBQ8ljOR8jrKSewT+jGTANsAHNBliBkyuUuIIFznaYVp+3M4rJn4Zij1mZyf8WabNhJdIXBi9exemlUrF38/+0aP4plhSaJw==);strokeColor=none;spacingTop=-3;spacingBottom=-3;spacingLeft=-3;spacingRight=-3;points=[];labelBackgroundColor=none;rounded=0;html=1;whiteSpace=wrap;" vertex="1" parent="IxxaY2BKMCGR-LkCxJqQ-119">
          <mxGeometry x="4.5" width="8.5" height="8.5" as="geometry" />
        </mxCell>
        <mxCell id="IxxaY2BKMCGR-LkCxJqQ-121" style="vsdxID=27;fillColor=#2d5967;gradientColor=none;shape=stencil(pZJNDoIwEIVP023TTkXqGvEeRIo0IiUFFG8vzZAIJQLqbn6+13mdDBFRnSeVIsDqxpqreui0yYk4EgBd5srqpo+IiImIMmPVxZq2TDGvEke66Gbu7oUOdZwxpwH2nOYnhAtdjuCf0QXQNzBBz61FsxybB0llOOBDiVMOWOlgDoE3pBP+VLHhMytL8jYa0FBMcLmjEH5+XQJl8J+A76kMFvzPLH0tWLG0QdAH7yPMdFHgDY/7/tH2JTx4Eb8A);strokeColor=none;spacingTop=-3;spacingBottom=-3;spacingLeft=-3;spacingRight=-3;points=[];labelBackgroundColor=none;rounded=0;html=1;whiteSpace=wrap;" vertex="1" parent="IxxaY2BKMCGR-LkCxJqQ-119">
          <mxGeometry x="15" width="8.5" height="8.5" as="geometry" />
        </mxCell>
        <mxCell id="IxxaY2BKMCGR-LkCxJqQ-122" style="vsdxID=28;fillColor=#2d5967;gradientColor=none;shape=stencil(UzV2Ls5ILEhVNTIoLinKz04tz0wpyVA1dlE1MsrMy0gtyiwBslSNXVWNndPyi1LTi/JL81Ig/IJEkEoQKze/DGRCBUSfoYEBSI+RQSUq3w2iOCczD0kx2UrxKER3AAlK8TqAgGK0UDDTszBFUW5homdkjtt0hDTZGhB2Ync/hpNI1kDASURoADIQCSctMycHku6Q5dETGlAIkkiNXQE=);strokeColor=none;spacingTop=-3;spacingBottom=-3;spacingLeft=-3;spacingRight=-3;points=[];labelBackgroundColor=none;rounded=0;html=1;whiteSpace=wrap;" vertex="1" parent="IxxaY2BKMCGR-LkCxJqQ-119">
          <mxGeometry x="9.5" y="10" width="8.5" height="8.5" as="geometry" />
        </mxCell>
        <mxCell id="IxxaY2BKMCGR-LkCxJqQ-123" style="vsdxID=29;fillColor=#2d5967;gradientColor=none;shape=stencil(UzV2Ls5ILEhVNTIoLinKz04tz0wpyVA1dlE1MsrMy0gtyiwBslSNXVWNndPyi1LTi/JL81Ig/IJEkEoQKze/DGRCBUSfoYEBSI+RQSUq3w2iOCczD0kx2UrxKER3AAlK8TqAgGK0UDDTszBFUW5homdkjtt0hDTZGhB2Ync/hpNI1kDASURoADIQCSctMycHku6Q5dETGlAIkkiNXQE=);strokeColor=none;spacingTop=-3;spacingBottom=-3;spacingLeft=-3;spacingRight=-3;points=[];labelBackgroundColor=none;rounded=0;html=1;whiteSpace=wrap;" vertex="1" parent="IxxaY2BKMCGR-LkCxJqQ-119">
          <mxGeometry x="20" y="10" width="8.5" height="8.5" as="geometry" />
        </mxCell>
        <mxCell id="IxxaY2BKMCGR-LkCxJqQ-124" style="vsdxID=30;fillColor=#2d5967;gradientColor=none;shape=stencil(pZLZDsIgEEW/hlcCjBV8rvU/mpQKEUtDcft7QWJsNXbRt1nOndxMLoK8U2UrESOdd/YgL7ryCsEWMaYbJZ32oUJQIMhr6+Te2VNTpb4tIxmroz3HC9ek2wgseFQxcksTSsij3yXc6KaHk1/REfB5ZQa60O0kPvwFzTCHAS5WmPHv9wVgmv0noGssspHffFhaLJiwNEMQild8am1MSl9//x63MEpRheIO);strokeColor=none;spacingTop=-3;spacingBottom=-3;spacingLeft=-3;spacingRight=-3;points=[];labelBackgroundColor=none;rounded=0;html=1;whiteSpace=wrap;" vertex="1" parent="IxxaY2BKMCGR-LkCxJqQ-119">
          <mxGeometry y="10" width="8.5" height="8.5" as="geometry" />
        </mxCell>
        <mxCell id="IxxaY2BKMCGR-LkCxJqQ-125" value="&lt;div style=&quot;&quot;&gt;&lt;p style=&quot;margin: 0px; text-indent: 0px; direction: ltr;&quot;&gt;&lt;font style=&quot;font-family: &amp;quot;Oracle Sans&amp;quot;; color: rgb(0, 0, 0); direction: ltr; letter-spacing: 0px; line-height: 120%; opacity: 1;&quot;&gt;&lt;font&gt;Container Registry&lt;/font&gt;&lt;br&gt;&lt;/font&gt;&lt;/p&gt;&lt;/div&gt;" style="verticalAlign=middle;align=center;vsdxID=32;fillColor=none;gradientColor=none;shape=stencil(nZBLDoAgDERP0z3SIyjew0SURgSD+Lu9kMZoXLhwN9O+tukAlrNpJg1SzDH4QW/URgNYgZTkjA4UkwJUgGXng+6DX1zLfmoymdXo17xh5zmRJ6Q42BWCfc2oJfdAr+Yv+AP9Cb7OJ3H/2JG1HNGz/84klThPVCc=);strokeColor=none;spacingTop=-3;spacingBottom=-3;spacingLeft=-3;spacingRight=-3;points=[];labelBackgroundColor=none;rounded=0;html=1;whiteSpace=wrap;aspect=fixed;" vertex="1" parent="IxxaY2BKMCGR-LkCxJqQ-126">
          <mxGeometry y="50" width="42" height="20.16" as="geometry" />
        </mxCell>
        <mxCell id="IxxaY2BKMCGR-LkCxJqQ-169" value="" style="group" vertex="1" connectable="0" parent="1">
          <mxGeometry x="800" y="310" width="50" height="67.18000000000006" as="geometry" />
        </mxCell>
        <mxCell id="IxxaY2BKMCGR-LkCxJqQ-155" style="vsdxID=82;fillColor=none;gradientColor=none;strokeColor=none;spacingTop=-3;spacingBottom=-3;spacingLeft=-3;spacingRight=-3;points=[];labelBackgroundColor=none;rounded=0;html=1;whiteSpace=wrap;aspect=fixed;" vertex="1" parent="IxxaY2BKMCGR-LkCxJqQ-169">
          <mxGeometry x="8" width="42" height="42" as="geometry" />
        </mxCell>
        <mxCell id="IxxaY2BKMCGR-LkCxJqQ-156" style="vsdxID=83;fillColor=none;gradientColor=none;strokeColor=none;spacingTop=-3;spacingBottom=-3;spacingLeft=-3;spacingRight=-3;points=[];labelBackgroundColor=none;rounded=0;html=1;whiteSpace=wrap;" vertex="1" parent="IxxaY2BKMCGR-LkCxJqQ-155">
          <mxGeometry width="42" height="42" as="geometry" />
        </mxCell>
        <mxCell id="IxxaY2BKMCGR-LkCxJqQ-157" style="vsdxID=84;fillColor=none;gradientColor=none;strokeColor=none;spacingTop=-3;spacingBottom=-3;spacingLeft=-3;spacingRight=-3;points=[];labelBackgroundColor=none;rounded=0;html=1;whiteSpace=wrap;" vertex="1" parent="IxxaY2BKMCGR-LkCxJqQ-156">
          <mxGeometry y="31.5" width="21.5" height="10" as="geometry" />
        </mxCell>
        <mxCell id="IxxaY2BKMCGR-LkCxJqQ-158" style="vsdxID=85;fillColor=#FFFFFF;gradientColor=none;shape=stencil(nZPbDoIwDIafZrfL1g6Baw/vYRRkEcEMVHx7WTrDBmrAu7b7uv09jOG6KfbXjIFoWlOfs4c+tgXDDQPQVZEZ3fYWwy3DdV6b7GTqW3Uk/7q3pLUu9d3e0FGesBkgnuRJQf6O0FJXX9FEcaG+wzEHGfBxxKMlPKz4yscPN0O65STBRaTkMUU6cBHgkWMgqKFDB6Qc0BHoEx81JjAWKX4pTBKeqlCiCPWlangeJkXgFMLPvQll+gmzev+e+szRjvEFS/M/2hvDCue6LOkH+Ofjle9D9F1w+wI=);strokeColor=none;spacingTop=-3;spacingBottom=-3;spacingLeft=-3;spacingRight=-3;points=[];labelBackgroundColor=none;rounded=0;html=1;whiteSpace=wrap;" vertex="1" parent="IxxaY2BKMCGR-LkCxJqQ-157">
          <mxGeometry x="0.5" width="21" height="9" as="geometry" />
        </mxCell>
        <mxCell id="IxxaY2BKMCGR-LkCxJqQ-159" style="vsdxID=86;fillColor=#FFFFFF;gradientColor=none;shape=stencil(pZXddsIgDMefprc5EFo+rp2+h2fW2TNnPVU3ffvRAcrHCna7o+kvEJL8ScUWp9362FZITuehf2+/us15V7GXCrE77NqhO+tVxZYVW2z7oX0b+sthY76P65EcVx/957jD1fhJArwZvZDcjEWBoD+GleFfL4NxoNajcQC50ciFXNFCCiS3kDVRCbU96cpSypr0XhT94/fdwQ/X8zAWwUFM86oBpgJeMmjm8IoAqmmHGjj9F5+Ph1JocMZ9Uz5JaFxP34WmpXLVa4CLsKBe1V3xCIg6rGfcTVE5i903ly91N5neXEePchpO8oagwrSRMGX8nsS7BBA4hinzoOcU4DnYhiAgZeZWwEJcy5dN42RGs4WsRNdHT8AFlYQwJZmqJYLK0qm+s7j7+Se4cMcYLzwEES2E0+Pv9xQgQr4GwTN8DSRMI1eQCT7lUQINDoj1ol1qF9NDQnc9uMGhnx4nQgxl5YaGp2lWFHXhBdCLx2Tcdvu9Gaz+/3iSapOZwmz5DQ==);strokeColor=none;spacingTop=-3;spacingBottom=-3;spacingLeft=-3;spacingRight=-3;points=[];labelBackgroundColor=none;rounded=0;html=1;whiteSpace=wrap;" vertex="1" parent="IxxaY2BKMCGR-LkCxJqQ-157">
          <mxGeometry width="21.5" height="10" as="geometry" />
        </mxCell>
        <mxCell id="IxxaY2BKMCGR-LkCxJqQ-160" style="vsdxID=87;fillColor=none;gradientColor=none;strokeColor=none;spacingTop=-3;spacingBottom=-3;spacingLeft=-3;spacingRight=-3;points=[];labelBackgroundColor=none;rounded=0;html=1;whiteSpace=wrap;" vertex="1" parent="IxxaY2BKMCGR-LkCxJqQ-156">
          <mxGeometry x="1" width="41" height="40.5" as="geometry" />
        </mxCell>
        <mxCell id="IxxaY2BKMCGR-LkCxJqQ-161" style="vsdxID=88;fillColor=#FFFFFF;gradientColor=none;shape=stencil(lZbddtsgDMefxrc6gEDAdde9R8+aLj7Lkh433dK3nzwbbMkx3e4SLPH/IfRBhw9vx6fXQ+fM23W4/Dj87p+vxw6/dM715+Nh6K/8q8PHDh9eLsPh+3B5Pz9P/1+fRsvx18/Lr3GH2+SXEEwcvZz5mFYygQ9/V75ODqf+vHIIAZKwpwwu79t7C94Kh4CA+/bI+5O0T5DS2uHb+zAdwc4uBKmcYV4iA3lWvblqhWXjeYmwHNXccLbykOalj3mJArgWsNMRpATGNYEtGFLAGYyXwC7XSLtqFLzkdQlcUrzVakfeEUQdr9XORT5A2MgbLe/BZyWvTy/D5crXEi0fwGML10hUz5cmSY3ExFyvsGIuouWeIwRqZK1Kck6LOWQ7kJy1VnIiQiQJGpdMcdXIKdYEQV3oYrQjngH9RrzuO0tZAxg26kqcjWr1oT7H/fRHSF7EivcgauFyxSSUvAkIVblyl0CJS2Dyp9XqAW2DNgLJ9LMQ2rW6oBVYA0H1Fm/AqtgaSbpug7i22JH1DkjVqFGaHmxWmgtYkeXeJVX1eWV8iOMjM58Dam2LlLsCZUnKN2VVja6tlv4WJe1avdywhZwavB6ywP20ULnnpyRxeeTErHAdoC5VKnNu4bWg7nQx2pNfVaHdbjxrhbytVdo033CnVdSj3B/ePO1RxIvzEmMjvhmszAee/9iYhuPrQY7v5CD6fQdrjDSPzQLOqQzj+l5xYFtA/Fk9cHiLRgmMANKhIN43/98H1D848I/lvfbSn07Tc2/9Xb/veGl6G+LjHw==);strokeColor=none;spacingTop=-3;spacingBottom=-3;spacingLeft=-3;spacingRight=-3;points=[];labelBackgroundColor=none;rounded=0;html=1;whiteSpace=wrap;" vertex="1" parent="IxxaY2BKMCGR-LkCxJqQ-160">
          <mxGeometry x="0.5" y="0.5" width="40" height="39.5" as="geometry" />
        </mxCell>
        <mxCell id="IxxaY2BKMCGR-LkCxJqQ-162" style="vsdxID=89;fillColor=#FFFFFF;gradientColor=none;shape=stencil(jVjZchw3DPyafUWR4DHks4//cMVytBVFcq1lR/n7YLPDA80dyG/SLDBogkCjMafw4cfjl+8PJ3Y/Xi8vfz38c/76+ngKH0/M5+fHh8v5Vf46hU+n8OHby+Xhz8vLz+evt/+/f7laXv/6++XX9Q1vN7/oqfqrF7t/b0+Y4vb/g883+z9+Xm4OfvdgKnX38ODi3ng3iuR5N+JmVPNuFLpRSbvR/iiQiv10fp6w5kw5a6yJcrHA5kI+AtiNfNZoZ6uGtlIpGu4cvsH1lA28geqm8IZIgU28gThovCGRQ7xMDrIrVgnSmz25AHi71VF8Ry4t8RPET7UdY44fvI6fCqUC8SMl44KTH6fv5bkFI8PTxe2vyGTYV8m/rqDCtLHhsJEGVDJFyz6TK8qhOgrGkeXnqE9QE5Vje4mfWNtv5KLhEMhV7YBFCJcgZa4j5I1yOnZYKUTu0ftjB6kCnSOpFDY5J+RRyr7X4JZ0Wc5Wo1OYdVleaxDaOJu0c21ySAgWwYLXdfZoePNKO8IxnVAYU93xcmkcN/DihWB84bhtCZ8hXZw7bU/hPbCIUOwWIbzdA8J6Ol3C8zGacIm9hhunacGLURsyjhiSNcVuT0prmPsMgncboP0QqxDCSpBI0BPz8ai6TWOtSx0u9IjBvaME42x+8R7L+9ZOc/gC9OxliHiIj+MBLlZKQTeuh/m39MHUa76dus9VXo24JRm7YO7tVobkra4ty/Alm2MqVbjZtQil5CpQzCR+mq6ZCDGA0W8yKNq/J9qcdbJrn+iDObiBQhHq1fWu7zewEUO9CgxjVM33ugOhXM0rEGkJ5d2pZoDl0YHcasoj2GnqhV6rwSjuuR16oGTCnfvML+B6N049ux6hd+MkvAJaHcQvFFArruEnguMlN12qUYBsLUpVZ0vqM+lkoQpBsA6QCvt5jdRpmLH16xhFI2jrNHsSScGx5gARjPYkShRhuckypYNGKvyEs2jrMm8e3DiMNhSDd4RDhg6Y33zcAjPK0QOov/H40LB5Sdd7+5Vce8V8hc6jBr/kIfUngqlQhSLynCEk7yjPPovva9tIWguPtN0Xz77nvolnc78oqXVBt6+NNY/kvNMLhnfOMN+64hnvT0aGqihx2EdQay8OeUMHZ/RY5S4Zx0KSrB1MfoYzyCsM+7LkVDDaDlzQwdpHRg77ltd18P1Z4Zw2T00VHL0f+qpIHRqNeC0yWDt7u9xXsaKq9CWkd5a8RF5fgvRSNIb5tRN1hIDXjNwgLgVkvfhsoP6yIxBUs5HxKaNbHX3K4L4gWuHjsgSNUTbip6ZcZq1spEuINugaHFP3aLGQnRHHuevD+41Xq2mPY8A7hW/TyNxxZZAmXaL44WURlaIZYFJNmnHM8AxonUZ6Rysb/PeO8JU/xnfOb+enp9tn0vl3/C4qj27fVMOn/wA=);strokeColor=none;spacingTop=-3;spacingBottom=-3;spacingLeft=-3;spacingRight=-3;points=[];labelBackgroundColor=none;rounded=0;html=1;whiteSpace=wrap;" vertex="1" parent="IxxaY2BKMCGR-LkCxJqQ-160">
          <mxGeometry width="41" height="40.5" as="geometry" />
        </mxCell>
        <mxCell id="IxxaY2BKMCGR-LkCxJqQ-163" style="vsdxID=90;fillColor=none;gradientColor=none;strokeColor=none;spacingTop=-3;spacingBottom=-3;spacingLeft=-3;spacingRight=-3;points=[];labelBackgroundColor=none;rounded=0;html=1;whiteSpace=wrap;" vertex="1" parent="IxxaY2BKMCGR-LkCxJqQ-155">
          <mxGeometry x="1" y="0.5" width="40" height="40" as="geometry" />
        </mxCell>
        <mxCell id="IxxaY2BKMCGR-LkCxJqQ-164" style="vsdxID=91;fillColor=#2d5967;gradientColor=none;shape=stencil(nZLdDsIgDIWfhlvC2qnhes73WDImRISF4d/bCzbG6cVE707br81JW4bNpLtRMRBTDP6gLqaPmuGWARinVTAxKYYtw2bwQe2DP7me4rHLZFZHf84TrtQnkcsqd4G4UUY8oh3B1rg5XHMJxTBwlKXwhq+LXYg3cIUc61K4Egtzn8W/4C82flvzMpzE65qDsZaeYV7/vH5K0edgewc=);strokeColor=none;spacingTop=-3;spacingBottom=-3;spacingLeft=-3;spacingRight=-3;points=[];labelBackgroundColor=none;rounded=0;html=1;whiteSpace=wrap;" vertex="1" parent="IxxaY2BKMCGR-LkCxJqQ-163">
          <mxGeometry y="38.5" width="19.5" height="1.5" as="geometry" />
        </mxCell>
        <mxCell id="IxxaY2BKMCGR-LkCxJqQ-165" style="vsdxID=92;fillColor=#2d5967;gradientColor=none;shape=stencil(pZRNcoMwDIVP463GlsyP12l6j0xDiqcUMg5pye0DtSm2CYFOd5b4ZJ7kN2K0u5SHc8GQX1rTfBTf+tiWjF4Yoq7Lwui2PzHaM9qdGlO8m+ZaH218PgzkcPpsvoYbOlsnOB9qkN9sTBKk+sm8Wvztaiwv4oIxkUCCNtWhTSkJGTnKpVxRRzbMcxgB8gH300rXvkYBqQpU8mcKE8A0lMhDeTyU5jdAIUELQwn1hRMcB/QQVQqkeIavj5tH3UwExmp/+5mYbR2tuiI0kRKAFBRkEoRcvj+HLPsXv2pTr8JlUAGJyKegZDi73jx5Gs3Ocx/F1GO1k7kX+Fit4sAjz/pKcD5mnDdFc2rba//5+TYU9Idp5Zx0VdmN5X+PV1SfsuuN9nc=);strokeColor=none;spacingTop=-3;spacingBottom=-3;spacingLeft=-3;spacingRight=-3;points=[];labelBackgroundColor=none;rounded=0;html=1;whiteSpace=wrap;" vertex="1" parent="IxxaY2BKMCGR-LkCxJqQ-163">
          <mxGeometry x="1" y="31.5" width="17" height="5.5" as="geometry" />
        </mxCell>
        <mxCell id="IxxaY2BKMCGR-LkCxJqQ-166" style="vsdxID=93;fillColor=#2d5967;gradientColor=none;shape=stencil(lVHLDoMgEPwargRYLXi29j9MxEpKwSD28feFkqZqo4232WVmdsIgKIeu7iViZPDOXuRdNb5DcESMKdNJp3xACCoEZWudPDs7mibNfR2ZEV3tLTo8ko4SEjWMPD8zZvS9OSW6VmZCFwU+wExA1slzZ8Exz9fJ4TDwRZQN74zivNjj/5s8Y1hsBtr1M3/pAXxLaJXWqcPp+7K0sEqFQ/UC);strokeColor=none;spacingTop=-3;spacingBottom=-3;spacingLeft=-3;spacingRight=-3;points=[];labelBackgroundColor=none;rounded=0;html=1;whiteSpace=wrap;" vertex="1" parent="IxxaY2BKMCGR-LkCxJqQ-163">
          <mxGeometry x="35" y="33.5" width="4.5" height="4.5" as="geometry" />
        </mxCell>
        <mxCell id="IxxaY2BKMCGR-LkCxJqQ-167" style="vsdxID=94;fillColor=#2d5967;gradientColor=none;shape=stencil(lVhJcttADHyNrqjZl7Pj/MMVy7EqiuSS7cT6fcCQswAjQtJNHjeIHqCxkBv78P769LbdGPX+cTr+2v7dPX+8buy3jTG7w+v2tPvAXxv7uLEPL8fT9ufp+Hl4nv9+e5qQ06/fxz/TE75mu6jBpMnKqPN84hNE/f/k+2yw3x06A28gW2Lg8GQdHxQER/DWgza9wY/P00xJLyYaXDHR1SaE+ejLLCgDfgEtJzaAzgvILiALhazloDXvDmxk3rsHF+9IKDP3HcfiPoDLzL+D5IVwZXCahkuDyBczqDTjq8Awvj1qOTIRrGd8O+/LkfHg4jpf5yHS9GoIWuLrHGhP+SrK1aEmDeWqKE+bwQbKk7ulNDGDjtJ04INEc8oTEyGqIFKmPWg5SuATI9vsKlkFLqyzxX9XCTb+It0MaiyZpcyaaMEmyrYH2RKYyCUbIFqBLaRAyWYISSKrKFPMt/eUqaI0UTPGUZqd10Ic4yxIAIXsaeNCteco8ZwCZinXqCAmyhXrqNT9uVWb1ZQvCiMaSrih1vznlgs9PrnkUNccVv8dS1tRmfkf7s9qphP3YhBBiZ27L7NSNNg/mAx7VFGmZWx9yWVji9cUVIhTKBnC1tvS3y4PslRjdF7JBzVIETxtzVopqYgVAaO5W0ffPYdvMKCTfqpKqv9YimotoKUqa8s0wqAfE3AFb0HlO/A4SyPlgyWlSYKHUR6H0Yg2XI49ylRU4JtE576VdJZGuYVEA35tlKOFD5SvNcPQ6XYaM4La4qP45qOlPW2URyojZa3YuyFcuhNEPiE7UGlOtYy6cR4YWVmb17XMtN81v7rlKaH3Taml4rza+/oG3/TH97BJfywePaopS7MhPPhn1dQmRS0vLW4MuAAxunWRb5tYw5iK4b16XBgQZIX1JpY+tbowcHxOHO/EwdlZaG5SL5fqTnE2I8gOIHsT2QtSw6qWCwnLl9FtNq2SOlTrBImX0oUxL0v9htpgxdQRqZNHCyHRrWHVEGqpuhNvnPgEAe9HQZmyYVwullwW2lotuJBLSR36jcfXWimo98boBgOaBVyH2KVDKm8Na29qLvE7SFHFl0j6EoJP8MIV0H9gQsKFShg52fF3XXlHGhew7MQr3x2jGwzwR/uW8rLb7+dPMf3/+bcXPJq/29jHfw==);strokeColor=none;spacingTop=-3;spacingBottom=-3;spacingLeft=-3;spacingRight=-3;points=[];labelBackgroundColor=none;rounded=0;html=1;whiteSpace=wrap;" vertex="1" parent="IxxaY2BKMCGR-LkCxJqQ-163">
          <mxGeometry x="1" width="37.5" height="37.5" as="geometry" />
        </mxCell>
        <mxCell id="IxxaY2BKMCGR-LkCxJqQ-168" value="&lt;div style=&quot;&quot;&gt;&lt;p style=&quot;margin: 0px; text-indent: 0px; direction: ltr;&quot;&gt;&lt;font style=&quot;font-family: &amp;quot;Oracle Sans&amp;quot;; color: rgb(0, 0, 0); direction: ltr; letter-spacing: 0px; line-height: 120%; opacity: 1;&quot;&gt;&lt;font&gt;Policies&lt;/font&gt;&lt;br&gt;&lt;/font&gt;&lt;/p&gt;&lt;/div&gt;" style="verticalAlign=middle;align=center;vsdxID=96;fillColor=none;gradientColor=none;shape=stencil(nZBLDoAgDERP0z3SIyjew0SURgSD+Lu9kMZoXLhwN9O+tukAlrNpJg1SzDH4QW/URgNYgZTkjA4UkwJUgGXng+6DX1zLfmoymdXo17xh5zmRJ6Q42BWCfc2oJfdAr+Yv+AP9Cb7OJ3H/2JG1HNGz/84klThPVCc=);strokeColor=none;spacingTop=-3;spacingBottom=-3;spacingLeft=-3;spacingRight=-3;points=[];labelBackgroundColor=none;rounded=0;html=1;whiteSpace=wrap;aspect=fixed;" vertex="1" parent="IxxaY2BKMCGR-LkCxJqQ-169">
          <mxGeometry y="54.83000000000004" width="42" height="12.35" as="geometry" />
        </mxCell>
        <mxCell id="IxxaY2BKMCGR-LkCxJqQ-193" value="" style="edgeStyle=orthogonalEdgeStyle;rounded=0;orthogonalLoop=1;jettySize=auto;html=1;entryX=0.929;entryY=0.119;entryDx=0;entryDy=0;entryPerimeter=0;" edge="1" parent="1" target="IxxaY2BKMCGR-LkCxJqQ-102">
          <mxGeometry relative="1" as="geometry">
            <mxPoint x="870" y="425" as="sourcePoint" />
            <mxPoint x="811.5" y="425.75" as="targetPoint" />
          </mxGeometry>
        </mxCell>
        <mxCell id="IxxaY2BKMCGR-LkCxJqQ-194" value="" style="edgeStyle=orthogonalEdgeStyle;rounded=0;orthogonalLoop=1;jettySize=auto;html=1;entryX=0.85;entryY=0.1;entryDx=0;entryDy=0;entryPerimeter=0;" edge="1" parent="1" source="IxxaY2BKMCGR-LkCxJqQ-163" target="IxxaY2BKMCGR-LkCxJqQ-105">
          <mxGeometry relative="1" as="geometry">
            <Array as="points">
              <mxPoint x="829" y="410" />
              <mxPoint x="535" y="410" />
            </Array>
          </mxGeometry>
        </mxCell>
      </root>
    </mxGraphModel>
  </diagram>
</mxfile>
